<mxfile modified="2022-02-10T01:14:23.848Z" host="app.diagrams.net" agent="5.0 (Macintosh; Intel Mac OS X 10_15_7) AppleWebKit/605.1.15 (KHTML, like Gecko) Version/15.2 Safari/605.1.15" etag="tY8RA5lj3BEdO8WDKolx" version="16.5.5" type="github">
  <diagram id="l8hXMBHkgcEJcSW0mbfh" name="Page-1">
    <mxGraphModel dx="923" dy="634" grid="1" gridSize="10" guides="1" tooltips="1" connect="1" arrows="1" fold="1" page="1" pageScale="1" pageWidth="1169" pageHeight="827" math="0" shadow="0">
      <root>
        <mxCell id="0" />
        <mxCell id="1" parent="0" />
        <mxCell id="8--HhbSZYtI3ddgJnD71-25" style="edgeStyle=none;rounded=0;orthogonalLoop=1;jettySize=auto;html=1;sourcePerimeterSpacing=5;endArrow=none;endFill=0;targetPerimeterSpacing=5;" parent="1" source="8--HhbSZYtI3ddgJnD71-2" target="8--HhbSZYtI3ddgJnD71-12" edge="1">
          <mxGeometry relative="1" as="geometry" />
        </mxCell>
        <mxCell id="8--HhbSZYtI3ddgJnD71-24" style="edgeStyle=none;rounded=0;orthogonalLoop=1;jettySize=auto;html=1;sourcePerimeterSpacing=5;endArrow=none;endFill=0;targetPerimeterSpacing=5;" parent="1" source="8--HhbSZYtI3ddgJnD71-5" target="8--HhbSZYtI3ddgJnD71-12" edge="1">
          <mxGeometry relative="1" as="geometry" />
        </mxCell>
        <mxCell id="8--HhbSZYtI3ddgJnD71-26" style="edgeStyle=none;rounded=0;orthogonalLoop=1;jettySize=auto;html=1;sourcePerimeterSpacing=5;endArrow=none;endFill=0;targetPerimeterSpacing=5;" parent="1" source="8--HhbSZYtI3ddgJnD71-11" target="8--HhbSZYtI3ddgJnD71-7" edge="1">
          <mxGeometry relative="1" as="geometry" />
        </mxCell>
        <mxCell id="8--HhbSZYtI3ddgJnD71-27" style="edgeStyle=none;rounded=0;orthogonalLoop=1;jettySize=auto;html=1;sourcePerimeterSpacing=5;endArrow=none;endFill=0;targetPerimeterSpacing=5;" parent="1" source="8--HhbSZYtI3ddgJnD71-11" target="8--HhbSZYtI3ddgJnD71-3" edge="1">
          <mxGeometry relative="1" as="geometry" />
        </mxCell>
        <mxCell id="8--HhbSZYtI3ddgJnD71-28" style="edgeStyle=none;rounded=0;orthogonalLoop=1;jettySize=auto;html=1;sourcePerimeterSpacing=5;endArrow=none;endFill=0;targetPerimeterSpacing=5;" parent="1" source="8--HhbSZYtI3ddgJnD71-11" target="8--HhbSZYtI3ddgJnD71-13" edge="1">
          <mxGeometry relative="1" as="geometry" />
        </mxCell>
        <mxCell id="8--HhbSZYtI3ddgJnD71-29" style="edgeStyle=none;rounded=0;orthogonalLoop=1;jettySize=auto;html=1;sourcePerimeterSpacing=5;endArrow=none;endFill=0;targetPerimeterSpacing=5;" parent="1" source="8--HhbSZYtI3ddgJnD71-11" target="8--HhbSZYtI3ddgJnD71-6" edge="1">
          <mxGeometry relative="1" as="geometry" />
        </mxCell>
        <mxCell id="8--HhbSZYtI3ddgJnD71-30" style="edgeStyle=none;rounded=0;orthogonalLoop=1;jettySize=auto;html=1;sourcePerimeterSpacing=5;endArrow=none;endFill=0;targetPerimeterSpacing=5;" parent="1" source="8--HhbSZYtI3ddgJnD71-11" target="8--HhbSZYtI3ddgJnD71-4" edge="1">
          <mxGeometry relative="1" as="geometry" />
        </mxCell>
        <mxCell id="8--HhbSZYtI3ddgJnD71-31" style="edgeStyle=none;rounded=0;orthogonalLoop=1;jettySize=auto;html=1;sourcePerimeterSpacing=5;endArrow=none;endFill=0;targetPerimeterSpacing=5;" parent="1" source="8--HhbSZYtI3ddgJnD71-11" target="8--HhbSZYtI3ddgJnD71-19" edge="1">
          <mxGeometry relative="1" as="geometry" />
        </mxCell>
        <mxCell id="8--HhbSZYtI3ddgJnD71-21" style="edgeStyle=none;rounded=0;orthogonalLoop=1;jettySize=auto;html=1;sourcePerimeterSpacing=5;endArrow=none;endFill=0;targetPerimeterSpacing=5;" parent="1" source="8--HhbSZYtI3ddgJnD71-12" target="8--HhbSZYtI3ddgJnD71-11" edge="1">
          <mxGeometry relative="1" as="geometry" />
        </mxCell>
        <mxCell id="8--HhbSZYtI3ddgJnD71-23" style="edgeStyle=none;rounded=0;orthogonalLoop=1;jettySize=auto;html=1;sourcePerimeterSpacing=5;endArrow=none;endFill=0;targetPerimeterSpacing=5;" parent="1" source="8--HhbSZYtI3ddgJnD71-16" target="8--HhbSZYtI3ddgJnD71-12" edge="1">
          <mxGeometry relative="1" as="geometry" />
        </mxCell>
        <mxCell id="8--HhbSZYtI3ddgJnD71-20" style="rounded=0;orthogonalLoop=1;jettySize=auto;html=1;endArrow=none;endFill=0;sourcePerimeterSpacing=5;targetPerimeterSpacing=5;" parent="1" source="8--HhbSZYtI3ddgJnD71-17" target="8--HhbSZYtI3ddgJnD71-12" edge="1">
          <mxGeometry relative="1" as="geometry" />
        </mxCell>
        <mxCell id="8--HhbSZYtI3ddgJnD71-22" style="edgeStyle=none;rounded=0;orthogonalLoop=1;jettySize=auto;html=1;sourcePerimeterSpacing=5;endArrow=none;endFill=0;targetPerimeterSpacing=5;" parent="1" source="8--HhbSZYtI3ddgJnD71-18" target="8--HhbSZYtI3ddgJnD71-12" edge="1">
          <mxGeometry relative="1" as="geometry" />
        </mxCell>
        <mxCell id="8--HhbSZYtI3ddgJnD71-32" style="edgeStyle=none;rounded=0;orthogonalLoop=1;jettySize=auto;html=1;sourcePerimeterSpacing=5;endArrow=none;endFill=0;targetPerimeterSpacing=5;" parent="1" source="8--HhbSZYtI3ddgJnD71-19" target="8--HhbSZYtI3ddgJnD71-9" edge="1">
          <mxGeometry relative="1" as="geometry" />
        </mxCell>
        <mxCell id="8--HhbSZYtI3ddgJnD71-33" style="edgeStyle=none;rounded=0;orthogonalLoop=1;jettySize=auto;html=1;sourcePerimeterSpacing=5;endArrow=none;endFill=0;targetPerimeterSpacing=5;" parent="1" source="8--HhbSZYtI3ddgJnD71-19" target="8--HhbSZYtI3ddgJnD71-8" edge="1">
          <mxGeometry relative="1" as="geometry" />
        </mxCell>
        <mxCell id="8--HhbSZYtI3ddgJnD71-34" style="edgeStyle=none;rounded=0;orthogonalLoop=1;jettySize=auto;html=1;sourcePerimeterSpacing=5;endArrow=none;endFill=0;targetPerimeterSpacing=5;" parent="1" source="8--HhbSZYtI3ddgJnD71-19" target="8--HhbSZYtI3ddgJnD71-15" edge="1">
          <mxGeometry relative="1" as="geometry" />
        </mxCell>
        <mxCell id="8--HhbSZYtI3ddgJnD71-35" style="edgeStyle=none;rounded=0;orthogonalLoop=1;jettySize=auto;html=1;sourcePerimeterSpacing=5;endArrow=none;endFill=0;targetPerimeterSpacing=5;" parent="1" source="8--HhbSZYtI3ddgJnD71-19" target="8--HhbSZYtI3ddgJnD71-14" edge="1">
          <mxGeometry relative="1" as="geometry" />
        </mxCell>
        <mxCell id="8--HhbSZYtI3ddgJnD71-36" style="edgeStyle=none;rounded=0;orthogonalLoop=1;jettySize=auto;html=1;sourcePerimeterSpacing=5;endArrow=none;endFill=0;targetPerimeterSpacing=5;" parent="1" source="8--HhbSZYtI3ddgJnD71-19" edge="1">
          <mxGeometry relative="1" as="geometry">
            <mxPoint x="705" y="508.4375" as="targetPoint" />
          </mxGeometry>
        </mxCell>
        <mxCell id="8--HhbSZYtI3ddgJnD71-37" style="edgeStyle=none;rounded=0;orthogonalLoop=1;jettySize=auto;html=1;sourcePerimeterSpacing=5;endArrow=none;endFill=0;targetPerimeterSpacing=5;" parent="1" source="8--HhbSZYtI3ddgJnD71-19" target="8--HhbSZYtI3ddgJnD71-10" edge="1">
          <mxGeometry relative="1" as="geometry" />
        </mxCell>
        <mxCell id="8--HhbSZYtI3ddgJnD71-2" value="Mobile" style="shape=image;verticalLabelPosition=bottom;verticalAlign=top;imageAspect=0;aspect=fixed;image=data:image/svg+xml,PHN2ZyB4bWxucz0iaHR0cDovL3d3dy53My5vcmcvMjAwMC9zdmciIHZlcnNpb249IjEiIHZpZXdCb3g9IjAgMCA0OCA0OCIgZW5hYmxlLWJhY2tncm91bmQ9Im5ldyAwIDAgNDggNDgiPiYjeGE7ICAgIDxwYXRoIGZpbGw9IiMzNzQ3NEYiIGQ9Ik00LDM5VjdjMC0yLjIsMS44LTQsNC00aDIyYzIuMiwwLDQsMS44LDQsNHYzMmMwLDIuMi0xLjgsNC00LDRIOEM1LjgsNDMsNCw0MS4yLDQsMzl6Ii8+JiN4YTsgICAgPHBhdGggZmlsbD0iI0JCREVGQiIgZD0iTTMwLDZIOEM3LjQsNiw3LDYuNCw3LDd2MjljMCwwLjYsMC40LDEsMSwxaDIyYzAuNiwwLDEtMC40LDEtMVY3QzMxLDYuNCwzMC42LDYsMzAsNnoiLz4mI3hhOyAgICA8cmVjdCB4PSIxNSIgeT0iMzkiIGZpbGw9IiM3ODkwOUMiIHdpZHRoPSI2IiBoZWlnaHQ9IjIiLz4mI3hhOyAgICA8cGF0aCBmaWxsPSIjRTM4OTM5IiBkPSJNMjQsNDFWMTdjMC0yLjIsMS44LTQsNC00aDEyYzIuMiwwLDQsMS44LDQsNHYyNGMwLDIuMi0xLjgsNC00LDRIMjhDMjUuOCw0NSwyNCw0My4yLDI0LDQxeiIvPiYjeGE7ICAgIDxwYXRoIGZpbGw9IiNGRkYzRTAiIGQ9Ik00MCwxNkgyOGMtMC42LDAtMSwwLjQtMSwxdjIyYzAsMC42LDAuNCwxLDEsMWgxMmMwLjYsMCwxLTAuNCwxLTFWMTdDNDEsMTYuNCw0MC42LDE2LDQwLDE2eiIvPiYjeGE7ICAgIDxjaXJjbGUgZmlsbD0iI0E2NjQyQSIgY3g9IjM0IiBjeT0iNDIuNSIgcj0iMS41Ii8+JiN4YTs8L3N2Zz4=;labelBackgroundColor=#ffffff;" parent="1" vertex="1">
          <mxGeometry x="202" y="282" width="48" height="48" as="geometry" />
        </mxCell>
        <mxCell id="8--HhbSZYtI3ddgJnD71-3" value="Chat" style="shape=image;verticalLabelPosition=bottom;verticalAlign=top;imageAspect=0;aspect=fixed;image=data:image/svg+xml,PHN2ZyB4bWxucz0iaHR0cDovL3d3dy53My5vcmcvMjAwMC9zdmciIHZlcnNpb249IjEiIHZpZXdCb3g9IjAgMCA0OCA0OCIgZW5hYmxlLWJhY2tncm91bmQ9Im5ldyAwIDAgNDggNDgiPiYjeGE7ICAgIDxwYXRoIGZpbGw9IiMwMDk2ODgiIGQ9Ik0zNywzOUgxMWwtNiw2VjExYzAtMy4zLDIuNy02LDYtNmgyNmMzLjMsMCw2LDIuNyw2LDZ2MjJDNDMsMzYuMyw0MC4zLDM5LDM3LDM5eiIvPiYjeGE7ICAgIDxnIGZpbGw9IiNmZmYiPiYjeGE7ICAgICAgICA8Y2lyY2xlIGN4PSIyNCIgY3k9IjIyIiByPSIzIi8+JiN4YTsgICAgICAgIDxjaXJjbGUgY3g9IjM0IiBjeT0iMjIiIHI9IjMiLz4mI3hhOyAgICAgICAgPGNpcmNsZSBjeD0iMTQiIGN5PSIyMiIgcj0iMyIvPiYjeGE7ICAgIDwvZz4mI3hhOzwvc3ZnPg==;labelBackgroundColor=#ffffff;" parent="1" vertex="1">
          <mxGeometry x="684" y="76" width="48" height="48" as="geometry" />
        </mxCell>
        <mxCell id="8--HhbSZYtI3ddgJnD71-4" value="Customer Support" style="shape=image;verticalLabelPosition=bottom;verticalAlign=top;imageAspect=0;aspect=fixed;image=data:image/svg+xml,PHN2ZyB4bWxucz0iaHR0cDovL3d3dy53My5vcmcvMjAwMC9zdmciIHZlcnNpb249IjEiIHZpZXdCb3g9IjAgMCA0OCA0OCIgZW5hYmxlLWJhY2tncm91bmQ9Im5ldyAwIDAgNDggNDgiPiYjeGE7ICAgIDxyZWN0IHg9IjEzIiB5PSIzMCIgZmlsbD0iI0JGMzYwQyIgd2lkdGg9IjIyIiBoZWlnaHQ9IjEyIi8+JiN4YTsgICAgPGcgZmlsbD0iI0ZGQTcyNiI+JiN4YTsgICAgICAgIDxjaXJjbGUgY3g9IjEwIiBjeT0iMjYiIHI9IjQiLz4mI3hhOyAgICAgICAgPGNpcmNsZSBjeD0iMzgiIGN5PSIyNiIgcj0iNCIvPiYjeGE7ICAgIDwvZz4mI3hhOyAgICA8cGF0aCBmaWxsPSIjRkZCNzREIiBkPSJNMzksMTljMC0xMi43LTMwLTguMy0zMCwwYzAsMS44LDAsOC4yLDAsMTBjMCw4LjMsNi43LDE1LDE1LDE1czE1LTYuNywxNS0xNUMzOSwyNy4yLDM5LDIwLjgsMzksMTl6Ii8+JiN4YTsgICAgPGcgZmlsbD0iIzc4NDcxOSI+JiN4YTsgICAgICAgIDxjaXJjbGUgY3g9IjMwIiBjeT0iMjYiIHI9IjIiLz4mI3hhOyAgICAgICAgPGNpcmNsZSBjeD0iMTgiIGN5PSIyNiIgcj0iMiIvPiYjeGE7ICAgIDwvZz4mI3hhOyAgICA8cGF0aCBmaWxsPSIjRkY1NzIyIiBkPSJNMjQsMkMxNS41LDIsMyw3LjgsMywzNS42TDEzLDQyVjI0bDE2LjgtOS44TDM1LDIxdjIxbDEwLTguMmMwLTUuNi0wLjktMjktMTUuNC0yOUwyOC4yLDJIMjR6Ii8+JiN4YTsgICAgPHBhdGggZmlsbD0iIzc1NzU3NSIgZD0iTTQ1LDI0Yy0wLjYsMC0xLDAuNC0xLDF2LTdjMC04LjgtNy4yLTE2LTE2LTE2aC05Yy0wLjYsMC0xLDAuNC0xLDFzMC40LDEsMSwxaDljNy43LDAsMTQsNi4zLDE0LDE0djEwIGMwLDAuNiwwLjQsMSwxLDFzMS0wLjQsMS0xdjJjMCwzLjktMy4xLDctNyw3SDI0Yy0wLjYsMC0xLDAuNC0xLDFzMC40LDEsMSwxaDEzYzUsMCw5LTQsOS05di01QzQ2LDI0LjQsNDUuNiwyNCw0NSwyNHoiLz4mI3hhOyAgICA8ZyBmaWxsPSIjMzc0NzRGIj4mI3hhOyAgICAgICAgPHBhdGggZD0iTTQ1LDIyaC0xYy0xLjEsMC0yLDAuOS0yLDJ2NGMwLDEuMSwwLjksMiwyLDJoMWMxLjEsMCwyLTAuOSwyLTJ2LTRDNDcsMjIuOSw0Ni4xLDIyLDQ1LDIyeiIvPiYjeGE7ICAgICAgICA8Y2lyY2xlIGN4PSIyNCIgY3k9IjM4IiByPSIyIi8+JiN4YTsgICAgPC9nPiYjeGE7PC9zdmc+;labelBackgroundColor=#ffffff;" parent="1" vertex="1">
          <mxGeometry x="858" y="330" width="48" height="48" as="geometry" />
        </mxCell>
        <mxCell id="8--HhbSZYtI3ddgJnD71-5" value="Home" style="shape=image;verticalLabelPosition=bottom;verticalAlign=top;imageAspect=0;aspect=fixed;image=data:image/svg+xml,PHN2ZyB4bWxucz0iaHR0cDovL3d3dy53My5vcmcvMjAwMC9zdmciIHZlcnNpb249IjEiIHZpZXdCb3g9IjAgMCA0OCA0OCIgZW5hYmxlLWJhY2tncm91bmQ9Im5ldyAwIDAgNDggNDgiPiYjeGE7ICAgIDxwb2x5Z29uIGZpbGw9IiNFOEVBRjYiIHBvaW50cz0iNDIsMzkgNiwzOSA2LDIzIDI0LDYgNDIsMjMiLz4mI3hhOyAgICA8ZyBmaWxsPSIjQzVDQUU5Ij4mI3hhOyAgICAgICAgPHBvbHlnb24gcG9pbnRzPSIzOSwyMSAzNCwxNiAzNCw5IDM5LDkiLz4mI3hhOyAgICAgICAgPHJlY3QgeD0iNiIgeT0iMzkiIHdpZHRoPSIzNiIgaGVpZ2h0PSI1Ii8+JiN4YTsgICAgPC9nPiYjeGE7ICAgIDxwb2x5Z29uIGZpbGw9IiNCNzFDMUMiIHBvaW50cz0iMjQsNC4zIDQsMjIuOSA2LDI1LjEgMjQsOC40IDQyLDI1LjEgNDQsMjIuOSIvPiYjeGE7ICAgIDxyZWN0IHg9IjE4IiB5PSIyOCIgZmlsbD0iI0Q4NDMxNSIgd2lkdGg9IjEyIiBoZWlnaHQ9IjE2Ii8+JiN4YTsgICAgPHJlY3QgeD0iMjEiIHk9IjE3IiBmaWxsPSIjMDE1NzlCIiB3aWR0aD0iNiIgaGVpZ2h0PSI2Ii8+JiN4YTsgICAgPHBhdGggZmlsbD0iI0ZGOEE2NSIgZD0iTTI3LjUsMzUuNWMtMC4zLDAtMC41LDAuMi0wLjUsMC41djJjMCwwLjMsMC4yLDAuNSwwLjUsMC41UzI4LDM4LjMsMjgsMzh2LTJDMjgsMzUuNywyNy44LDM1LjUsMjcuNSwzNS41eiIvPiYjeGE7PC9zdmc+;labelBackgroundColor=#ffffff;" parent="1" vertex="1">
          <mxGeometry x="170" y="186" width="48" height="48" as="geometry" />
        </mxCell>
        <mxCell id="8--HhbSZYtI3ddgJnD71-6" value="Education" style="shape=image;verticalLabelPosition=bottom;verticalAlign=top;imageAspect=0;aspect=fixed;image=data:image/svg+xml,PHN2ZyB4bWxucz0iaHR0cDovL3d3dy53My5vcmcvMjAwMC9zdmciIHZlcnNpb249IjEiIHZpZXdCb3g9IjAgMCA0OCA0OCIgZW5hYmxlLWJhY2tncm91bmQ9Im5ldyAwIDAgNDggNDgiPiYjeGE7ICAgIDxnIGZpbGw9IiMzNzQ3NEYiPiYjeGE7ICAgICAgICA8cmVjdCB4PSI5IiB5PSIyMCIgd2lkdGg9IjMwIiBoZWlnaHQ9IjEzIi8+JiN4YTsgICAgICAgIDxlbGxpcHNlIGN4PSIyNCIgY3k9IjMzIiByeD0iMTUiIHJ5PSI2Ii8+JiN4YTsgICAgPC9nPiYjeGE7ICAgIDxwYXRoIGZpbGw9IiM3ODkwOUMiIGQ9Ik0yMy4xLDguMkwwLjYsMTguMWMtMC44LDAuNC0wLjgsMS41LDAsMS45bDIyLjUsOS45YzAuNiwwLjIsMS4yLDAuMiwxLjgsMGwyMi41LTkuOWMwLjgtMC40LDAuOC0xLjUsMC0xLjkgTDI0LjksOC4yQzI0LjMsNy45LDIzLjcsNy45LDIzLjEsOC4yeiIvPiYjeGE7ICAgIDxnIGZpbGw9IiMzNzQ3NEYiPiYjeGE7ICAgICAgICA8cGF0aCBkPSJNNDMuMiwyMC40bC0yMC0zLjRjLTAuNS0wLjEtMS4xLDAuMy0xLjIsMC44Yy0wLjEsMC41LDAuMywxLjEsMC44LDEuMkw0MiwyMi4yVjM3YzAsMC42LDAuNCwxLDEsMSBzMS0wLjQsMS0xVjIxLjRDNDQsMjAuOSw0My42LDIwLjUsNDMuMiwyMC40eiIvPiYjeGE7ICAgICAgICA8Y2lyY2xlIGN4PSI0MyIgY3k9IjM3IiByPSIyIi8+JiN4YTsgICAgICAgIDxwYXRoIGQ9Ik00Niw0MGMwLDEuNy0zLDYtMyw2cy0zLTQuMy0zLTZzMS4zLTMsMy0zUzQ2LDM4LjMsNDYsNDB6Ii8+JiN4YTsgICAgPC9nPiYjeGE7PC9zdmc+;labelBackgroundColor=#ffffff;" parent="1" vertex="1">
          <mxGeometry x="880" y="220" width="48" height="48" as="geometry" />
        </mxCell>
        <mxCell id="8--HhbSZYtI3ddgJnD71-7" value="Alarm" style="shape=image;verticalLabelPosition=bottom;verticalAlign=top;imageAspect=0;aspect=fixed;image=data:image/svg+xml,PHN2ZyB4bWxucz0iaHR0cDovL3d3dy53My5vcmcvMjAwMC9zdmciIHZlcnNpb249IjEiIHZpZXdCb3g9IjAgMCA0OCA0OCIgZW5hYmxlLWJhY2tncm91bmQ9Im5ldyAwIDAgNDggNDgiPiYjeGE7ICAgIDxnIGZpbGw9IiMzNzQ3NEYiPiYjeGE7ICAgICAgICA8cGF0aCBkPSJNMzguNSw0NC42bC00LTRsMi4xLTIuMWw0LDRjMC42LDAuNiwwLjYsMS41LDAsMi4xbDAsMEM0MC4xLDQ1LjEsMzkuMSw0NS4xLDM4LjUsNDQuNnoiLz4mI3hhOyAgICAgICAgPHBhdGggZD0iTTkuNSw0NC42bDQtNGwtMi4xLTIuMWwtNCw0Yy0wLjYsMC42LTAuNiwxLjUsMCwyLjFsMCwwQzcuOSw0NS4xLDguOSw0NS4xLDkuNSw0NC42eiIvPiYjeGE7ICAgIDwvZz4mI3hhOyAgICA8Y2lyY2xlIGZpbGw9IiNDNjI4MjgiIGN4PSIyNCIgY3k9IjI0IiByPSIyMCIvPiYjeGE7ICAgIDxjaXJjbGUgZmlsbD0iI2VlZSIgY3g9IjI0IiBjeT0iMjQiIHI9IjE2Ii8+JiN4YTsgICAgPHJlY3QgeD0iMTkiIHk9IjIyLjEiIHRyYW5zZm9ybT0ibWF0cml4KC0uNzA3IC0uNzA3IC43MDcgLS43MDcgMTIuOTA0IDYyLjUzNykiIGZpbGw9IiNFNTM5MzUiIHdpZHRoPSIuOCIgaGVpZ2h0PSIxMyIvPiYjeGE7ICAgIDxyZWN0IHg9IjIzIiB5PSIxMSIgd2lkdGg9IjIiIGhlaWdodD0iMTMiLz4mI3hhOyAgICA8cmVjdCB4PSIyNi4xIiB5PSIyMi43IiB0cmFuc2Zvcm09Im1hdHJpeCgtLjcwNyAuNzA3IC0uNzA3IC0uNzA3IDY1Ljc4NyAyNy4yNSkiIHdpZHRoPSIyLjMiIGhlaWdodD0iOS4yIi8+JiN4YTsgICAgPGNpcmNsZSBjeD0iMjQiIGN5PSIyNCIgcj0iMiIvPiYjeGE7ICAgIDxjaXJjbGUgZmlsbD0iI0M2MjgyOCIgY3g9IjI0IiBjeT0iMjQiIHI9IjEiLz4mI3hhOyAgICA8cmVjdCB4PSIyMiIgeT0iMSIgZmlsbD0iIzM3NDc0RiIgd2lkdGg9IjQiIGhlaWdodD0iMyIvPiYjeGE7ICAgIDxnIGZpbGw9IiMzNzQ3NEYiPiYjeGE7ICAgICAgICA8cGF0aCBkPSJNNDQuNCwxNi4yYzIuNS0zLjUsMi4xLTguNC0xLTExLjVjLTMuMS0zLjEtOC0zLjUtMTEuNS0xTDQ0LjQsMTYuMnoiLz4mI3hhOyAgICAgICAgPHBhdGggZD0iTTMuNiwxNi4yYy0yLjUtMy41LTIuMS04LjQsMS0xMS41YzMuMS0zLjEsOC0zLjUsMTEuNS0xTDMuNiwxNi4yeiIvPiYjeGE7ICAgIDwvZz4mI3hhOzwvc3ZnPg==;labelBackgroundColor=#ffffff;" parent="1" vertex="1">
          <mxGeometry x="554" y="100" width="48" height="48" as="geometry" />
        </mxCell>
        <mxCell id="8--HhbSZYtI3ddgJnD71-8" value="Business" style="shape=image;verticalLabelPosition=bottom;verticalAlign=top;imageAspect=0;aspect=fixed;image=data:image/svg+xml,PHN2ZyB4bWxucz0iaHR0cDovL3d3dy53My5vcmcvMjAwMC9zdmciIHZlcnNpb249IjEiIHZpZXdCb3g9IjAgMCA0OCA0OCIgZW5hYmxlLWJhY2tncm91bmQ9Im5ldyAwIDAgNDggNDgiPiYjeGE7ICAgIDxnIGZpbGw9IiMyNjMyMzgiPiYjeGE7ICAgICAgICA8cGF0aCBkPSJNMTEsNDRIOWMtMC42LDAtMS0wLjQtMS0xdi0yaDR2MkMxMiw0My42LDExLjYsNDQsMTEsNDR6Ii8+JiN4YTsgICAgICAgIDxwYXRoIGQ9Ik0zOSw0NGgtMmMtMC42LDAtMS0wLjQtMS0xdi0yaDR2MkM0MCw0My42LDM5LjYsNDQsMzksNDR6Ii8+JiN4YTsgICAgPC9nPiYjeGE7ICAgIDxwYXRoIGZpbGw9IiMzNzQ3NEYiIGQ9Ik0yNyw3aC02Yy0xLjcsMC0zLDEuMy0zLDN2M2gydi0zYzAtMC42LDAuNC0xLDEtMWg2YzAuNiwwLDEsMC40LDEsMXYzaDJ2LTNDMzAsOC4zLDI4LjcsNywyNyw3eiIvPiYjeGE7ICAgIDxwYXRoIGZpbGw9IiM3ODkwOUMiIGQ9Ik00MCw0M0g4Yy0yLjIsMC00LTEuOC00LTRWMTVjMC0yLjIsMS44LTQsNC00aDMyYzIuMiwwLDQsMS44LDQsNHYyNEM0NCw0MS4yLDQyLjIsNDMsNDAsNDN6Ii8+JiN4YTs8L3N2Zz4=;labelBackgroundColor=#ffffff;" parent="1" vertex="1">
          <mxGeometry x="358" y="490" width="48" height="48" as="geometry" />
        </mxCell>
        <mxCell id="8--HhbSZYtI3ddgJnD71-9" value="Report" style="shape=image;verticalLabelPosition=bottom;verticalAlign=top;imageAspect=0;aspect=fixed;image=data:image/svg+xml,PHN2ZyB4bWxucz0iaHR0cDovL3d3dy53My5vcmcvMjAwMC9zdmciIHZlcnNpb249IjEiIHZpZXdCb3g9IjAgMCA0OCA0OCIgZW5hYmxlLWJhY2tncm91bmQ9Im5ldyAwIDAgNDggNDgiPiYjeGE7ICAgIDxwYXRoIGZpbGw9IiM3ODkwOUMiIGQ9Ik00MCw0MUg4Yy0yLjIsMC00LTEuOC00LTRsMC0yMC45YzAtMS4zLDAuNi0yLjUsMS43LTMuM0wyNCwwbDE4LjMsMTIuOGMxLjEsMC43LDEuNywyLDEuNywzLjNWMzcgQzQ0LDM5LjIsNDIuMiw0MSw0MCw0MXoiLz4mI3hhOyAgICA8cmVjdCB4PSIxMiIgeT0iMTEiIGZpbGw9IiNmZmYiIHdpZHRoPSIyNCIgaGVpZ2h0PSIyMiIvPiYjeGE7ICAgIDxwb2x5Z29uIGZpbGw9IiM5QzI3QjAiIHBvaW50cz0iMjQsMTMuNiAxOCwyMS40IDMwLDIxLjQiLz4mI3hhOyAgICA8cGF0aCBmaWxsPSIjQ0ZEOERDIiBkPSJNNDAsNDFIOGMtMi4yLDAtNC0xLjgtNC00bDAtMjBsMjAsMTNsMjAtMTN2MjBDNDQsMzkuMiw0Mi4yLDQxLDQwLDQxeiIvPiYjeGE7ICAgIDxwb2x5Z29uIGZpbGw9IiM5QzI3QjAiIHBvaW50cz0iMjQsMjggMjYsMjYuNyAyNiwyMCAyMiwyMCAyMiwyNi43Ii8+JiN4YTs8L3N2Zz4=;labelBackgroundColor=#ffffff;" parent="1" vertex="1">
          <mxGeometry x="334" y="378" width="48" height="48" as="geometry" />
        </mxCell>
        <mxCell id="8--HhbSZYtI3ddgJnD71-10" value="Storage" style="shape=image;verticalLabelPosition=bottom;verticalAlign=top;imageAspect=0;aspect=fixed;image=data:image/svg+xml,PHN2ZyB4bWxucz0iaHR0cDovL3d3dy53My5vcmcvMjAwMC9zdmciIHZlcnNpb249IjEiIHZpZXdCb3g9IjAgMCA0OCA0OCIgZW5hYmxlLWJhY2tncm91bmQ9Im5ldyAwIDAgNDggNDgiPiYjeGE7ICAgIDxyZWN0IHg9IjEyIiB5PSI0NCIgZmlsbD0iIzI2MzIzOCIgd2lkdGg9IjQiIGhlaWdodD0iMiIvPiYjeGE7ICAgIDxyZWN0IHg9IjMyIiB5PSI0NCIgZmlsbD0iIzI2MzIzOCIgd2lkdGg9IjQiIGhlaWdodD0iMiIvPiYjeGE7ICAgIDxwYXRoIGZpbGw9IiM2MDdEOEIiIGQ9Ik04LDQxVjdjMC0yLjIsMS44LTQsNC00aDI0YzIuMiwwLDQsMS44LDQsNHYzNGMwLDIuMi0xLjgsNC00LDRIMTJDOS44LDQ1LDgsNDMuMiw4LDQxeiIvPiYjeGE7ICAgIDxwYXRoIGZpbGw9IiNCMEJFQzUiIGQ9Ik0xMiwxN1Y4YzAtMC42LDAuNC0xLDEtMWgyMmMwLjYsMCwxLDAuNCwxLDF2OUgxMnoiLz4mI3hhOyAgICA8cmVjdCB4PSIxMiIgeT0iMTkiIGZpbGw9IiNCMEJFQzUiIHdpZHRoPSIyNCIgaGVpZ2h0PSIxMCIvPiYjeGE7ICAgIDxwYXRoIGZpbGw9IiNCMEJFQzUiIGQ9Ik0xMiw0MHYtOWgyNHY5YzAsMC42LTAuNCwxLTEsMUgxM0MxMi40LDQxLDEyLDQwLjYsMTIsNDB6Ii8+JiN4YTsgICAgPHJlY3QgeD0iMjAiIHk9IjExIiBmaWxsPSIjNTQ2RTdBIiB3aWR0aD0iOCIgaGVpZ2h0PSIyIi8+JiN4YTsgICAgPHJlY3QgeD0iMjAiIHk9IjIzIiBmaWxsPSIjNTQ2RTdBIiB3aWR0aD0iOCIgaGVpZ2h0PSIyIi8+JiN4YTsgICAgPHJlY3QgeD0iMjAiIHk9IjM1IiBmaWxsPSIjNTQ2RTdBIiB3aWR0aD0iOCIgaGVpZ2h0PSIyIi8+JiN4YTs8L3N2Zz4=;labelBackgroundColor=#ffffff;" parent="1" vertex="1">
          <mxGeometry x="824" y="460" width="48" height="48" as="geometry" />
        </mxCell>
        <mxCell id="8--HhbSZYtI3ddgJnD71-11" value="Internet" style="shape=image;verticalLabelPosition=bottom;verticalAlign=top;imageAspect=0;aspect=fixed;image=data:image/svg+xml,PHN2ZyB4bWxucz0iaHR0cDovL3d3dy53My5vcmcvMjAwMC9zdmciIHZlcnNpb249IjEiIHZpZXdCb3g9IjAgMCA0OCA0OCIgZW5hYmxlLWJhY2tncm91bmQ9Im5ldyAwIDAgNDggNDgiPiYjeGE7ICAgIDxwYXRoIGZpbGw9IiM3Q0IzNDIiIGQ9Ik0yNCw0QzEzLDQsNCwxMyw0LDI0czksMjAsMjAsMjBzMjAtOSwyMC0yMFMzNSw0LDI0LDR6Ii8+JiN4YTsgICAgPHBhdGggZmlsbD0iIzAyNzdCRCIgZD0iTTQ1LDI0YzAsMTEuNy05LjUsMjEtMjEsMjFTMywzNS43LDMsMjRTMTIuMywzLDI0LDNTNDUsMTIuMyw0NSwyNHogTTIzLjgsMzMuN2MwLTAuNC0wLjItMC42LTAuNi0wLjggYy0xLjMtMC40LTIuNS0wLjQtMy42LTEuNWMtMC4yLTAuNC0wLjItMC44LTAuNC0xLjNjLTAuNC0wLjQtMS41LTAuNi0yLjEtMC44Yy0wLjgsMC0xLjcsMC0yLjcsMGMtMC40LDAtMS4xLDAtMS41LDAgYy0wLjYtMC4yLTEuMS0xLjEtMS41LTEuN2MwLTAuMiwwLTAuNi0wLjQtMC42Yy0wLjQtMC4yLTAuOCwwLjItMS4zLDBjLTAuMi0wLjItMC4yLTAuNC0wLjItMC42YzAtMC42LDAuNC0xLjMsMC44LTEuNyBjMC42LTAuNCwxLjMsMC4yLDEuOSwwLjJjMC4yLDAsMC4yLDAsMC40LDAuMmMwLjYsMC4yLDAuOCwxLDAuOCwxLjdjMCwwLjIsMCwwLjQsMCwwLjRjMCwwLjIsMC4yLDAuMiwwLjQsMC4yIGMwLjItMS4xLDAuMi0yLjEsMC40LTMuMmMwLTEuMywxLjMtMi41LDIuMy0yLjljMC40LTAuMiwwLjYsMC4yLDEuMSwwYzEuMy0wLjQsNC40LTEuNywzLjgtMy40Yy0wLjQtMS41LTEuNy0yLjktMy40LTIuNyBjLTAuNCwwLjItMC42LDAuNC0xLDAuNmMtMC42LDAuNC0xLjksMS43LTIuNSwxLjdjLTEuMS0wLjItMS4xLTEuNy0wLjgtMi4zYzAuMi0wLjgsMi4xLTMuNiwzLjQtMy4xYzAuMiwwLjIsMC42LDAuNiwwLjgsMC44IGMwLjQsMC4yLDEuMSwwLjIsMS43LDAuMmMwLjIsMCwwLjQsMCwwLjYtMC4yYzAuMi0wLjIsMC4yLTAuMiwwLjItMC40YzAtMC42LTAuNi0xLjMtMS0xLjdjLTAuNC0wLjQtMS4xLTAuOC0xLjctMS4xIGMtMi4xLTAuNi01LjUsMC4yLTcuMSwxLjdzLTIuOSw0LTMuOCw2LjFjLTAuNCwxLjMtMC44LDIuOS0xLDQuNGMtMC4yLDEtMC40LDEuOSwwLjIsMi45YzAuNiwxLjMsMS45LDIuNSwzLjIsMy40IGMwLjgsMC42LDIuNSwwLjYsMy40LDEuN2MwLjYsMC44LDAuNCwxLjksMC40LDIuOWMwLDEuMywwLjgsMi4zLDEuMywzLjRjMC4yLDAuNiwwLjQsMS41LDAuNiwyLjFjMCwwLjIsMC4yLDEuNSwwLjIsMS43IGMxLjMsMC42LDIuMywxLjMsMy44LDEuN2MwLjIsMCwxLTEuMywxLTEuNWMwLjYtMC42LDEuMS0xLjUsMS43LTEuOWMwLjQtMC4yLDAuOC0wLjQsMS4zLTAuOGMwLjQtMC40LDAuNi0xLjMsMC44LTEuOSBDMjMuOCwzNS4xLDI0LDM0LjMsMjMuOCwzMy43eiBNMjQuMiwxNC4zYzAuMiwwLDAuNC0wLjIsMC44LTAuNGMwLjYtMC40LDEuMy0xLjEsMS45LTEuNWMwLjYtMC40LDEuMy0xLjEsMS43LTEuNSBjMC42LTAuNCwxLjEtMS4zLDEuMy0xLjljMC4yLTAuNCwwLjgtMS4zLDAuNi0xLjljLTAuMi0wLjQtMS4zLTAuNi0xLjctMC44Yy0xLjctMC40LTMuMS0wLjYtNC44LTAuNmMtMC42LDAtMS41LDAuMi0xLjcsMC44IGMtMC4yLDEuMSwwLjYsMC44LDEuNSwxLjFjMCwwLDAuMiwxLjcsMC4yLDEuOWMwLjIsMS0wLjQsMS43LTAuNCwyLjdjMCwwLjYsMCwxLjcsMC40LDIuMUwyNC4yLDE0LjN6IE00MS44LDI5IGMwLjItMC40LDAuMi0xLjEsMC40LTEuNWMwLjItMSwwLjItMi4xLDAuMi0zLjFjMC0yLjEtMC4yLTQuMi0wLjgtNi4xYy0wLjQtMC42LTAuNi0xLjMtMC44LTEuOWMtMC40LTEuMS0xLTIuMS0xLjktMi45IGMtMC44LTEuMS0xLjktNC0zLjgtMy4xYy0wLjYsMC4yLTEsMS0xLjUsMS41Yy0wLjQsMC42LTAuOCwxLjMtMS4zLDEuOWMtMC4yLDAuMi0wLjQsMC42LTAuMiwwLjhjMCwwLjIsMC4yLDAuMiwwLjQsMC4yIGMwLjQsMC4yLDAuNiwwLjIsMSwwLjRjMC4yLDAsMC40LDAuMiwwLjIsMC40YzAsMCwwLDAuMi0wLjIsMC4yYy0xLDEuMS0yLjEsMS45LTMuMSwyLjljLTAuMiwwLjItMC40LDAuNi0wLjQsMC44IGMwLDAuMiwwLjIsMC4yLDAuMiwwLjRjMCwwLjItMC4yLDAuMi0wLjQsMC40Yy0wLjQsMC4yLTAuOCwwLjQtMS4xLDAuNmMtMC4yLDAuNCwwLDEuMS0wLjIsMS41Yy0wLjIsMS4xLTAuOCwxLjktMS4zLDIuOSBjLTAuNCwwLjYtMC42LDEuMy0xLDEuOWMwLDAuOC0wLjIsMS41LDAuMiwyLjFjMSwxLjUsMi45LDAuNiw0LjQsMS4zYzAuNCwwLjIsMC44LDAuMiwxLjEsMC42YzAuNiwwLjYsMC42LDEuNywwLjgsMi4zIGMwLjIsMC44LDAuNCwxLjcsMC44LDIuNWMwLjIsMSwwLjYsMi4xLDAuOCwyLjljMS45LTEuNSwzLjYtMy4xLDQuOC01LjJDNDAuNiwzMi40LDQxLjIsMzAuNyw0MS44LDI5eiIvPiYjeGE7PC9zdmc+;labelBackgroundColor=#ffffff;" parent="1" vertex="1">
          <mxGeometry x="684" y="250" width="48" height="48" as="geometry" />
        </mxCell>
        <mxCell id="8--HhbSZYtI3ddgJnD71-12" value="Security" style="shape=image;verticalLabelPosition=bottom;verticalAlign=top;imageAspect=0;aspect=fixed;image=data:image/svg+xml,PHN2ZyB4bWxucz0iaHR0cDovL3d3dy53My5vcmcvMjAwMC9zdmciIHZlcnNpb249IjEiIHZpZXdCb3g9IjAgMCA0OCA0OCIgZW5hYmxlLWJhY2tncm91bmQ9Im5ldyAwIDAgNDggNDgiPiYjeGE7ICAgIDxwYXRoIGZpbGw9IiM0MjQyNDIiIGQ9Ik0yNCw0Yy01LjUsMC0xMCw0LjUtMTAsMTB2NGg0di00YzAtMy4zLDIuNy02LDYtNnM2LDIuNyw2LDZ2NGg0di00QzM0LDguNSwyOS41LDQsMjQsNHoiLz4mI3hhOyAgICA8cGF0aCBmaWxsPSIjRkI4QzAwIiBkPSJNMzYsNDRIMTJjLTIuMiwwLTQtMS44LTQtNFYyMmMwLTIuMiwxLjgtNCw0LTRoMjRjMi4yLDAsNCwxLjgsNCw0djE4QzQwLDQyLjIsMzguMiw0NCwzNiw0NHoiLz4mI3hhOyAgICA8Y2lyY2xlIGZpbGw9IiNDNzZFMDAiIGN4PSIyNCIgY3k9IjMxIiByPSIzIi8+JiN4YTs8L3N2Zz4=;labelBackgroundColor=#ffffff;" parent="1" vertex="1">
          <mxGeometry x="323" y="220" width="48" height="48" as="geometry" />
        </mxCell>
        <mxCell id="8--HhbSZYtI3ddgJnD71-13" value="Calendar" style="shape=image;verticalLabelPosition=bottom;verticalAlign=top;imageAspect=0;aspect=fixed;image=data:image/svg+xml,PHN2ZyB4bWxucz0iaHR0cDovL3d3dy53My5vcmcvMjAwMC9zdmciIHZlcnNpb249IjEiIHZpZXdCb3g9IjAgMCA0OCA0OCIgZW5hYmxlLWJhY2tncm91bmQ9Im5ldyAwIDAgNDggNDgiPiYjeGE7ICAgIDxwYXRoIGZpbGw9IiNDRkQ4REMiIGQ9Ik01LDM4VjE0aDM4djI0YzAsMi4yLTEuOCw0LTQsNEg5QzYuOCw0Miw1LDQwLjIsNSwzOHoiLz4mI3hhOyAgICA8cGF0aCBmaWxsPSIjRjQ0MzM2IiBkPSJNNDMsMTB2Nkg1di02YzAtMi4yLDEuOC00LDQtNGgzMEM0MS4yLDYsNDMsNy44LDQzLDEweiIvPiYjeGE7ICAgIDxnIGZpbGw9IiNCNzFDMUMiPiYjeGE7ICAgICAgICA8Y2lyY2xlIGN4PSIzMyIgY3k9IjEwIiByPSIzIi8+JiN4YTsgICAgICAgIDxjaXJjbGUgY3g9IjE1IiBjeT0iMTAiIHI9IjMiLz4mI3hhOyAgICA8L2c+JiN4YTsgICAgPGcgZmlsbD0iI0IwQkVDNSI+JiN4YTsgICAgICAgIDxwYXRoIGQ9Ik0zMywzYy0xLjEsMC0yLDAuOS0yLDJ2NWMwLDEuMSwwLjksMiwyLDJzMi0wLjksMi0yVjVDMzUsMy45LDM0LjEsMywzMywzeiIvPiYjeGE7ICAgICAgICA8cGF0aCBkPSJNMTUsM2MtMS4xLDAtMiwwLjktMiwydjVjMCwxLjEsMC45LDIsMiwyczItMC45LDItMlY1QzE3LDMuOSwxNi4xLDMsMTUsM3oiLz4mI3hhOyAgICA8L2c+JiN4YTsgICAgPGcgZmlsbD0iI0IwQkVDNSI+JiN4YTsgICAgICAgIDxyZWN0IHg9IjEzIiB5PSIyMSIgd2lkdGg9IjYiIGhlaWdodD0iNiIvPiYjeGE7ICAgICAgICA8cmVjdCB4PSIyMSIgeT0iMjEiIHdpZHRoPSI2IiBoZWlnaHQ9IjYiLz4mI3hhOyAgICAgICAgPHJlY3QgeD0iMjkiIHk9IjIxIiB3aWR0aD0iNiIgaGVpZ2h0PSI2Ii8+JiN4YTsgICAgICAgIDxyZWN0IHg9IjEzIiB5PSIyOSIgd2lkdGg9IjYiIGhlaWdodD0iNiIvPiYjeGE7ICAgICAgICA8cmVjdCB4PSIyMSIgeT0iMjkiIHdpZHRoPSI2IiBoZWlnaHQ9IjYiLz4mI3hhOyAgICA8L2c+JiN4YTsgICAgPHJlY3QgeD0iMjkiIHk9IjI5IiBmaWxsPSIjRjQ0MzM2IiB3aWR0aD0iNiIgaGVpZ2h0PSI2Ii8+JiN4YTs8L3N2Zz4=;labelBackgroundColor=#ffffff;" parent="1" vertex="1">
          <mxGeometry x="810" y="130" width="48" height="48" as="geometry" />
        </mxCell>
        <mxCell id="8--HhbSZYtI3ddgJnD71-14" value="Analytics" style="shape=image;verticalLabelPosition=bottom;verticalAlign=top;imageAspect=0;aspect=fixed;image=data:image/svg+xml,PHN2ZyB4bWxucz0iaHR0cDovL3d3dy53My5vcmcvMjAwMC9zdmciIHZlcnNpb249IjEiIHZpZXdCb3g9IjAgMCA0OCA0OCIgZW5hYmxlLWJhY2tncm91bmQ9Im5ldyAwIDAgNDggNDgiPiYjeGE7ICAgIDxwb2x5Z29uIGZpbGw9IiM5MENBRjkiIHBvaW50cz0iMzYuOSwxMy44IDM1LjEsMTAuMiA3LjUsMjQgMzUuMSwzNy44IDM2LjksMzQuMiAxNi41LDI0Ii8+JiN4YTsgICAgPHJlY3QgeD0iNiIgeT0iMTgiIGZpbGw9IiNEODFCNjAiIHdpZHRoPSIxMiIgaGVpZ2h0PSIxMiIvPiYjeGE7ICAgIDxnIGZpbGw9IiMyMTk2RjMiPiYjeGE7ICAgICAgICA8cmVjdCB4PSIzMCIgeT0iNiIgd2lkdGg9IjEyIiBoZWlnaHQ9IjEyIi8+JiN4YTsgICAgICAgIDxyZWN0IHg9IjMwIiB5PSIzMCIgd2lkdGg9IjEyIiBoZWlnaHQ9IjEyIi8+JiN4YTsgICAgPC9nPiYjeGE7PC9zdmc+;labelBackgroundColor=#ffffff;" parent="1" vertex="1">
          <mxGeometry x="576" y="514" width="48" height="48" as="geometry" />
        </mxCell>
        <mxCell id="8--HhbSZYtI3ddgJnD71-15" value="Store" style="shape=image;verticalLabelPosition=bottom;verticalAlign=top;imageAspect=0;aspect=fixed;image=data:image/svg+xml,PHN2ZyB4bWxucz0iaHR0cDovL3d3dy53My5vcmcvMjAwMC9zdmciIHZlcnNpb249IjEiIHZpZXdCb3g9IjAgMCA0OCA0OCIgZW5hYmxlLWJhY2tncm91bmQ9Im5ldyAwIDAgNDggNDgiPiYjeGE7ICAgIDxyZWN0IHg9IjUiIHk9IjE5IiBmaWxsPSIjQ0ZEOERDIiB3aWR0aD0iMzgiIGhlaWdodD0iMTkiLz4mI3hhOyAgICA8cmVjdCB4PSI1IiB5PSIzOCIgZmlsbD0iI0IwQkVDNSIgd2lkdGg9IjM4IiBoZWlnaHQ9IjQiLz4mI3hhOyAgICA8cmVjdCB4PSIyNyIgeT0iMjQiIGZpbGw9IiM0NTVBNjQiIHdpZHRoPSIxMiIgaGVpZ2h0PSIxOCIvPiYjeGE7ICAgIDxyZWN0IHg9IjkiIHk9IjI0IiBmaWxsPSIjRTNGMkZEIiB3aWR0aD0iMTQiIGhlaWdodD0iMTEiLz4mI3hhOyAgICA8cmVjdCB4PSIxMCIgeT0iMjUiIGZpbGw9IiMxRTg4RTUiIHdpZHRoPSIxMiIgaGVpZ2h0PSI5Ii8+JiN4YTsgICAgPHBhdGggZmlsbD0iIzkwQTRBRSIgZD0iTTM2LjUsMzMuNWMtMC4zLDAtMC41LDAuMi0wLjUsMC41djJjMCwwLjMsMC4yLDAuNSwwLjUsMC41UzM3LDM2LjMsMzcsMzZ2LTJDMzcsMzMuNywzNi44LDMzLjUsMzYuNSwzMy41eiIvPiYjeGE7ICAgIDxnIGZpbGw9IiM1NThCMkYiPiYjeGE7ICAgICAgICA8Y2lyY2xlIGN4PSIyNCIgY3k9IjE5IiByPSIzIi8+JiN4YTsgICAgICAgIDxjaXJjbGUgY3g9IjM2IiBjeT0iMTkiIHI9IjMiLz4mI3hhOyAgICAgICAgPGNpcmNsZSBjeD0iMTIiIGN5PSIxOSIgcj0iMyIvPiYjeGE7ICAgIDwvZz4mI3hhOyAgICA8cGF0aCBmaWxsPSIjN0NCMzQyIiBkPSJNNDAsNkg4QzYuOSw2LDYsNi45LDYsOHYzaDM2VjhDNDIsNi45LDQxLjEsNiw0MCw2eiIvPiYjeGE7ICAgIDxyZWN0IHg9IjIxIiB5PSIxMSIgZmlsbD0iIzdDQjM0MiIgd2lkdGg9IjYiIGhlaWdodD0iOCIvPiYjeGE7ICAgIDxwb2x5Z29uIGZpbGw9IiM3Q0IzNDIiIHBvaW50cz0iMzcsMTEgMzIsMTEgMzMsMTkgMzksMTkiLz4mI3hhOyAgICA8cG9seWdvbiBmaWxsPSIjN0NCMzQyIiBwb2ludHM9IjExLDExIDE2LDExIDE1LDE5IDksMTkiLz4mI3hhOyAgICA8ZyBmaWxsPSIjRkZBMDAwIj4mI3hhOyAgICAgICAgPGNpcmNsZSBjeD0iMzAiIGN5PSIxOSIgcj0iMyIvPiYjeGE7ICAgICAgICA8cGF0aCBkPSJNNDUsMTljMCwxLjctMS4zLDMtMywzcy0zLTEuMy0zLTNzMS4zLTMsMy0zTDQ1LDE5eiIvPiYjeGE7ICAgICAgICA8Y2lyY2xlIGN4PSIxOCIgY3k9IjE5IiByPSIzIi8+JiN4YTsgICAgICAgIDxwYXRoIGQ9Ik0zLDE5YzAsMS43LDEuMywzLDMsM3MzLTEuMywzLTNzLTEuMy0zLTMtM0wzLDE5eiIvPiYjeGE7ICAgIDwvZz4mI3hhOyAgICA8ZyBmaWxsPSIjRkZDMTA3Ij4mI3hhOyAgICAgICAgPHBvbHlnb24gcG9pbnRzPSIzMiwxMSAyNywxMSAyNywxOSAzMywxOSIvPiYjeGE7ICAgICAgICA8cG9seWdvbiBwb2ludHM9IjQyLDExIDM3LDExIDM5LDE5IDQ1LDE5Ii8+JiN4YTsgICAgICAgIDxwb2x5Z29uIHBvaW50cz0iMTYsMTEgMjEsMTEgMjEsMTkgMTUsMTkiLz4mI3hhOyAgICAgICAgPHBvbHlnb24gcG9pbnRzPSI2LDExIDExLDExIDksMTkgMywxOSIvPiYjeGE7ICAgIDwvZz4mI3hhOzwvc3ZnPg==;labelBackgroundColor=#ffffff;" parent="1" vertex="1">
          <mxGeometry x="458" y="508" width="48" height="48" as="geometry" />
        </mxCell>
        <mxCell id="8--HhbSZYtI3ddgJnD71-16" value="User" style="shape=image;verticalLabelPosition=bottom;verticalAlign=top;imageAspect=0;aspect=fixed;image=data:image/svg+xml,PHN2ZyB4bWxucz0iaHR0cDovL3d3dy53My5vcmcvMjAwMC9zdmciIHZlcnNpb249IjEiIHZpZXdCb3g9IjAgMCA0OCA0OCIgZW5hYmxlLWJhY2tncm91bmQ9Im5ldyAwIDAgNDggNDgiPiYjeGE7ICAgIDxwb2x5Z29uIGZpbGw9IiNGRjk4MDAiIHBvaW50cz0iMjQsMzcgMTksMzEgMTksMjUgMjksMjUgMjksMzEiLz4mI3hhOyAgICA8ZyBmaWxsPSIjRkZBNzI2Ij4mI3hhOyAgICAgICAgPGNpcmNsZSBjeD0iMzMiIGN5PSIxOSIgcj0iMiIvPiYjeGE7ICAgICAgICA8Y2lyY2xlIGN4PSIxNSIgY3k9IjE5IiByPSIyIi8+JiN4YTsgICAgPC9nPiYjeGE7ICAgIDxwYXRoIGZpbGw9IiNGRkI3NEQiIGQ9Ik0zMywxM2MwLTcuNi0xOC01LTE4LDBjMCwxLjEsMCw1LjksMCw3YzAsNSw0LDksOSw5czktNCw5LTlDMzMsMTguOSwzMywxNC4xLDMzLDEzeiIvPiYjeGE7ICAgIDxwYXRoIGZpbGw9IiM0MjQyNDIiIGQ9Ik0yNCw0Yy02LjEsMC0xMCw0LjktMTAsMTFjMCwwLjgsMCwyLjMsMCwyLjNsMiwxLjd2LTVsMTItNGw0LDR2NWwyLTEuN2MwLDAsMC0xLjUsMC0yLjNjMC00LTEtOC02LTlsLTEtMiBIMjR6Ii8+JiN4YTsgICAgPGcgZmlsbD0iIzc4NDcxOSI+JiN4YTsgICAgICAgIDxjaXJjbGUgY3g9IjI4IiBjeT0iMTkiIHI9IjEiLz4mI3hhOyAgICAgICAgPGNpcmNsZSBjeD0iMjAiIGN5PSIxOSIgcj0iMSIvPiYjeGE7ICAgIDwvZz4mI3hhOyAgICA8cG9seWdvbiBmaWxsPSIjZmZmIiBwb2ludHM9IjI0LDQzIDE5LDMxIDI0LDMyIDI5LDMxIi8+JiN4YTsgICAgPHBvbHlnb24gZmlsbD0iI0QzMkYyRiIgcG9pbnRzPSIyMywzNSAyMi4zLDM5LjUgMjQsNDMuNSAyNS43LDM5LjUgMjUsMzUgMjYsMzQgMjQsMzIgMjIsMzQiLz4mI3hhOyAgICA8cGF0aCBmaWxsPSIjNTQ2RTdBIiBkPSJNMjksMzFMMjksMzFsLTUsMTJsLTUtMTJjMCwwLTExLDItMTEsMTNoMzJDNDAsMzMsMjksMzEsMjksMzF6Ii8+JiN4YTs8L3N2Zz4=;labelBackgroundColor=#ffffff;" parent="1" vertex="1">
          <mxGeometry x="204" y="94" width="48" height="48" as="geometry" />
        </mxCell>
        <mxCell id="8--HhbSZYtI3ddgJnD71-17" value="User" style="shape=image;verticalLabelPosition=bottom;verticalAlign=top;imageAspect=0;aspect=fixed;image=data:image/svg+xml,PHN2ZyB4bWxucz0iaHR0cDovL3d3dy53My5vcmcvMjAwMC9zdmciIHZlcnNpb249IjEiIHZpZXdCb3g9IjAgMCA0OCA0OCIgZW5hYmxlLWJhY2tncm91bmQ9Im5ldyAwIDAgNDggNDgiPiYjeGE7ICAgIDxwb2x5Z29uIGZpbGw9IiNGRjk4MDAiIHBvaW50cz0iMjQsMzcgMTksMzEgMTksMjUgMjksMjUgMjksMzEiLz4mI3hhOyAgICA8ZyBmaWxsPSIjRkZBNzI2Ij4mI3hhOyAgICAgICAgPGNpcmNsZSBjeD0iMzMiIGN5PSIxOSIgcj0iMiIvPiYjeGE7ICAgICAgICA8Y2lyY2xlIGN4PSIxNSIgY3k9IjE5IiByPSIyIi8+JiN4YTsgICAgPC9nPiYjeGE7ICAgIDxwYXRoIGZpbGw9IiNGRkI3NEQiIGQ9Ik0zMywxM2MwLTcuNi0xOC01LTE4LDBjMCwxLjEsMCw1LjksMCw3YzAsNSw0LDksOSw5czktNCw5LTlDMzMsMTguOSwzMywxNC4xLDMzLDEzeiIvPiYjeGE7ICAgIDxwYXRoIGZpbGw9IiM0MjQyNDIiIGQ9Ik0yNCw0Yy02LjEsMC0xMCw0LjktMTAsMTFjMCwwLjgsMCwyLjMsMCwyLjNsMiwxLjd2LTVsMTItNGw0LDR2NWwyLTEuN2MwLDAsMC0xLjUsMC0yLjNjMC00LTEtOC02LTlsLTEtMiBIMjR6Ii8+JiN4YTsgICAgPGcgZmlsbD0iIzc4NDcxOSI+JiN4YTsgICAgICAgIDxjaXJjbGUgY3g9IjI4IiBjeT0iMTkiIHI9IjEiLz4mI3hhOyAgICAgICAgPGNpcmNsZSBjeD0iMjAiIGN5PSIxOSIgcj0iMSIvPiYjeGE7ICAgIDwvZz4mI3hhOyAgICA8cG9seWdvbiBmaWxsPSIjZmZmIiBwb2ludHM9IjI0LDQzIDE5LDMxIDI0LDMyIDI5LDMxIi8+JiN4YTsgICAgPHBvbHlnb24gZmlsbD0iI0QzMkYyRiIgcG9pbnRzPSIyMywzNSAyMi4zLDM5LjUgMjQsNDMuNSAyNS43LDM5LjUgMjUsMzUgMjYsMzQgMjQsMzIgMjIsMzQiLz4mI3hhOyAgICA8cGF0aCBmaWxsPSIjNTQ2RTdBIiBkPSJNMjksMzFMMjksMzFsLTUsMTJsLTUtMTJjMCwwLTExLDItMTEsMTNoMzJDNDAsMzMsMjksMzEsMjksMzF6Ii8+JiN4YTs8L3N2Zz4=;labelBackgroundColor=#ffffff;" parent="1" vertex="1">
          <mxGeometry x="394" y="106" width="48" height="48" as="geometry" />
        </mxCell>
        <mxCell id="8--HhbSZYtI3ddgJnD71-18" value="User" style="shape=image;verticalLabelPosition=bottom;verticalAlign=top;imageAspect=0;aspect=fixed;image=data:image/svg+xml,PHN2ZyB4bWxucz0iaHR0cDovL3d3dy53My5vcmcvMjAwMC9zdmciIHZlcnNpb249IjEiIHZpZXdCb3g9IjAgMCA0OCA0OCIgZW5hYmxlLWJhY2tncm91bmQ9Im5ldyAwIDAgNDggNDgiPiYjeGE7ICAgIDxwb2x5Z29uIGZpbGw9IiNGRjk4MDAiIHBvaW50cz0iMjQsMzcgMTksMzEgMTksMjUgMjksMjUgMjksMzEiLz4mI3hhOyAgICA8ZyBmaWxsPSIjRkZBNzI2Ij4mI3hhOyAgICAgICAgPGNpcmNsZSBjeD0iMzMiIGN5PSIxOSIgcj0iMiIvPiYjeGE7ICAgICAgICA8Y2lyY2xlIGN4PSIxNSIgY3k9IjE5IiByPSIyIi8+JiN4YTsgICAgPC9nPiYjeGE7ICAgIDxwYXRoIGZpbGw9IiNGRkI3NEQiIGQ9Ik0zMywxM2MwLTcuNi0xOC01LTE4LDBjMCwxLjEsMCw1LjksMCw3YzAsNSw0LDksOSw5czktNCw5LTlDMzMsMTguOSwzMywxNC4xLDMzLDEzeiIvPiYjeGE7ICAgIDxwYXRoIGZpbGw9IiM0MjQyNDIiIGQ9Ik0yNCw0Yy02LjEsMC0xMCw0LjktMTAsMTFjMCwwLjgsMCwyLjMsMCwyLjNsMiwxLjd2LTVsMTItNGw0LDR2NWwyLTEuN2MwLDAsMC0xLjUsMC0yLjNjMC00LTEtOC02LTlsLTEtMiBIMjR6Ii8+JiN4YTsgICAgPGcgZmlsbD0iIzc4NDcxOSI+JiN4YTsgICAgICAgIDxjaXJjbGUgY3g9IjI4IiBjeT0iMTkiIHI9IjEiLz4mI3hhOyAgICAgICAgPGNpcmNsZSBjeD0iMjAiIGN5PSIxOSIgcj0iMSIvPiYjeGE7ICAgIDwvZz4mI3hhOyAgICA8cG9seWdvbiBmaWxsPSIjZmZmIiBwb2ludHM9IjI0LDQzIDE5LDMxIDI0LDMyIDI5LDMxIi8+JiN4YTsgICAgPHBvbHlnb24gZmlsbD0iI0QzMkYyRiIgcG9pbnRzPSIyMywzNSAyMi4zLDM5LjUgMjQsNDMuNSAyNS43LDM5LjUgMjUsMzUgMjYsMzQgMjQsMzIgMjIsMzQiLz4mI3hhOyAgICA8cGF0aCBmaWxsPSIjNTQ2RTdBIiBkPSJNMjksMzFMMjksMzFsLTUsMTJsLTUtMTJjMCwwLTExLDItMTEsMTNoMzJDNDAsMzMsMjksMzEsMjksMzF6Ii8+JiN4YTs8L3N2Zz4=;labelBackgroundColor=#ffffff;" parent="1" vertex="1">
          <mxGeometry x="299" y="70" width="48" height="48" as="geometry" />
        </mxCell>
        <mxCell id="8--HhbSZYtI3ddgJnD71-19" value="Security" style="shape=image;verticalLabelPosition=bottom;verticalAlign=top;imageAspect=0;aspect=fixed;image=data:image/svg+xml,PHN2ZyB4bWxucz0iaHR0cDovL3d3dy53My5vcmcvMjAwMC9zdmciIHZlcnNpb249IjEiIHZpZXdCb3g9IjAgMCA0OCA0OCIgZW5hYmxlLWJhY2tncm91bmQ9Im5ldyAwIDAgNDggNDgiPiYjeGE7ICAgIDxwYXRoIGZpbGw9IiM0MjQyNDIiIGQ9Ik0yNCw0Yy01LjUsMC0xMCw0LjUtMTAsMTB2NGg0di00YzAtMy4zLDIuNy02LDYtNnM2LDIuNyw2LDZ2NGg0di00QzM0LDguNSwyOS41LDQsMjQsNHoiLz4mI3hhOyAgICA8cGF0aCBmaWxsPSIjRkI4QzAwIiBkPSJNMzYsNDRIMTJjLTIuMiwwLTQtMS44LTQtNFYyMmMwLTIuMiwxLjgtNCw0LTRoMjRjMi4yLDAsNCwxLjgsNCw0djE4QzQwLDQyLjIsMzguMiw0NCwzNiw0NHoiLz4mI3hhOyAgICA8Y2lyY2xlIGZpbGw9IiNDNzZFMDAiIGN4PSIyNCIgY3k9IjMxIiByPSIzIi8+JiN4YTs8L3N2Zz4=;labelBackgroundColor=#ffffff;" parent="1" vertex="1">
          <mxGeometry x="550" y="378" width="48" height="48" as="geometry" />
        </mxCell>
        <mxCell id="LoNtk_1nzPrce8RhWd1--1" value="" style="shape=mxgraph.signs.travel.bank;html=1;pointerEvents=1;fillColor=#000000;strokeColor=none;verticalLabelPosition=bottom;verticalAlign=top;align=center;" parent="1" vertex="1">
          <mxGeometry x="103" y="510" width="52.95" height="46" as="geometry" />
        </mxCell>
        <mxCell id="sPfLZQJSzLfNbBtWYW_q-1" value="" style="shape=image;verticalLabelPosition=bottom;verticalAlign=top;imageAspect=0;aspect=fixed;image=data:image/jpeg,/9j/4AAQSkZJRgABAQAAAQABAAD/4gKgSUNDX1BST0ZJTEUAAQEAAAKQbGNtcwQwAABtbnRyUkdCIFhZWiAH4QADAA8ACQAgAA1hY3NwQVBQTAAAAAAAAAAAAAAAAAAAAAAAAAAAAAAAAAAA9tYAAQAAAADTLWxjbXMAAAAAAAAAAAAAAAAAAAAAAAAAAAAAAAAAAAAAAAAAAAAAAAAAAAAAAAAAAAAAAAtkZXNjAAABCAAAADhjcHJ0AAABQAAAAE53dHB0AAABkAAAABRjaGFkAAABpAAAACxyWFlaAAAB0AAAABRiWFlaAAAB5AAAABRnWFlaAAAB+AAAABRyVFJDAAACDAAAACBnVFJDAAACLAAAACBiVFJDAAACTAAAACBjaHJtAAACbAAAACRtbHVjAAAAAAAAAAEAAAAMZW5VUwAAABwAAAAcAHMAUgBHAEIAIABiAHUAaQBsAHQALQBpAG4AAG1sdWMAAAAAAAAAAQAAAAxlblVTAAAAMgAAABwATgBvACAAYwBvAHAAeQByAGkAZwBoAHQALAAgAHUAcwBlACAAZgByAGUAZQBsAHkAAAAAWFlaIAAAAAAAAPbWAAEAAAAA0y1zZjMyAAAAAAABDEoAAAXj///zKgAAB5sAAP2H///7ov///aMAAAPYAADAlFhZWiAAAAAAAABvlAAAOO4AAAOQWFlaIAAAAAAAACSdAAAPgwAAtr5YWVogAAAAAAAAYqUAALeQAAAY3nBhcmEAAAAAAAMAAAACZmYAAPKnAAANWQAAE9AAAApbcGFyYQAAAAAAAwAAAAJmZgAA8qcAAA1ZAAAT0AAACltwYXJhAAAAAAADAAAAAmZmAADypwAADVkAABPQAAAKW2Nocm0AAAAAAAMAAAAAo9cAAFR7AABMzQAAmZoAACZmAAAPXP/bAEMABQMEBAQDBQQEBAUFBQYHDAgHBwcHDwsLCQwRDxISEQ8RERMWHBcTFBoVEREYIRgaHR0fHx8TFyIkIh4kHB4fHv/bAEMBBQUFBwYHDggIDh4UERQeHh4eHh4eHh4eHh4eHh4eHh4eHh4eHh4eHh4eHh4eHh4eHh4eHh4eHh4eHh4eHh4eHv/CABEIAZABkAMBIgACEQEDEQH/xAAcAAEAAgMBAQEAAAAAAAAAAAAABgcEBQgDAQL/xAAaAQEAAwEBAQAAAAAAAAAAAAAAAwQFAgYB/9oADAMBAAIQAxAAAAGvh7DEAAAAAAAAAAAAAAAAAAAAAAAAAAAAAAAAAAAAAAAAAAAAAAAAAAAAAAAAAAAAAAAAAAAAAAAAAAAAAAAAAAAAAAAAAAAAAAAAAAAAAAAAAAAAAAAAAAAAAAAAAAAAAAAAAAAAAAAAAAAAAAAAAAAAAAAAAAAAAAAAAAAAAAAAAAAAAAAAAAAAAAAAAAAAAAAAAAAAAAAAAAAAAAAAAAAAAAAAAAAAAAAAAAAAAAAAAAAAAAAAAAAAAAAAAAGx5fZ7ZUNx7zGrqRy8YkO6krT59qYa1OxpH7zbz2nAVdYV2vaWLX1wQ91RGepef7EcaGlVnko85/g6PMA3s7JtSq9nVmsFXyvJlTesMGeO3cul+pc+zXnlp66sR5WKaVSY6jaXhl2+YbZh1/fPvP2jle2sxeME6AomPrWDRrAALAr+bVpLwoi99DhaPO6Uxb0eX0BveZPubbfg1Kd4TaEzbzGvzTr9hr/S5KfQG0a8tq1Ta1GZF2GD0WZcE/gE/wDNanMA9Ll7aWQe16NjQN+qy1/Hsvoe1Fzb1LRl50Z6frqxq50qraatYitmSUH9o2bsm8ciWXb2eyzIl3z749UNOp8F6AAB+/wLunHLMsyLt9R7XTDMtUnCOpYFpVaWGxSvCbQmbeX14B4wjC1KllzGh7NrSRmt+nKLsxRcalS4J/AJ/wCa1OYB6XL9JLG5jXkwmahkh3TXM3TNWWlbwo+8K8sVjetrq3An0B+6Fa1t7GJnjX91Aa2xLUNzS3myTcdTTEmVL8de0YNeiHfwBJI3ZteTWw/puhqU8S3+gaVXpfPr2wvMa/OOn32h9Nk3hNoTNvN6vNOv2Gv9LkttqdqdIwuaQ/zOtRI9TkXBP4BP/NanMA9Ll5t5Uh0tj3a631K9IwyczdJc49HScUreFH3hDJT9dWLXWtSWpVaTmxPSt/sfXQOywIxiX8OxuZ+lrMUP8NdWNiOYw40KwScgM7BfHSeqoydY16OZE4/M3Ez1leweLvy+GzRvCbU7IfPaUBwbMXYK2sv840fVlUnr4rJyGpUuCf01JsHQp8b2fsOluY7fybkdt+g/D59yL2oPY/fm8tOkEfUoheYsRxbC2Ou0K2Ta2s1dCxZ1E4cy6+RrpStMGrNpoZ6eerTCTkAAAAAAAAAAAAAAAAAAAAAAAAAAAAAAAAAAAAAAAAAAAAAAAAAAAAAAAAAAAAAAAAAAAAAAAAAAAAAAAAAAAAAAAAAAAAAAAAAAAAAAAAAAAAAAAAAAAAAAAAAAAAAAAAAAAAAAAAAAAAAAAAAAAAAAAAAAAAAAAAAAAAAAAAAAAAAAAAAAAAAAAAAAAAAAAAAAAAAAAAAAAAAAAAAAAAAAAAAAAAAAAAAAAAAAAAAAAAAAAAAAAAAAAAAAD//EACoQAAEDAwMCBgMBAQAAAAAAAAQCAwUAAQYQFjUVNBITIDAxMxEUIZAj/9oACAEBAAEFAv8AewAEo5wXE13snFQKexMe9j8dPFtrj0GLIR+1Y+tqx9bVj62rH09iY97SkIaBbXGocaSGdxcBLegqEuE7fhq2/DVt+GqNCFfmdvw1bfhq2rH05jcU3fb8NRaEtk1BQapJqUjCo5yr4mytucirxahmlPkH4sS3RDDw7nrjRVGmhDMiD5RNOAqVKyKlRORlMvJVZScviUXa0wrhaPkDkndSkKZl5JpWOynUhVWsq2RgWAktME7Ej6NBmHiXOkSddIk66RJ0UISLrb4zvv8AXFpD9KRIaafZLBGtN1mT/mzGFR/jel5MeOZkjnzyPXgyLXk6y9KrTmmNO+OEfsh1hxPhXWFcLUlyGmDrvaUrPbW8emCdiR9GkUc5HFbrNrdZtbrNqYlXpPW3xnff6RQ7ZZ+2o+jhEljxUCGKZe9rWIxhh9+PjrRtiIAQh3bMf7GGv2Zl6mIseSakoI4LTxXrxK1wrhakuQ0wUVXirLzElSemCdiR9GgiULK6Nj9dGx+ujY/RKUILaEFUzmCG25a3xnff+i35vfHAP0I3NJH+QB1j47Nwr3R7KFKQqBnmS0aSEMAbUnjZY3owrhafxcV1/aYlM4sAhf4SINPTp/owTsSPo0bQpxzb0rW3pWtvStLQpt0ft805q3xNDxLz7wON2aqGj4cgHpOO0BARjTpBQzF3Y2AdcjGoaOdv5BgxEBCj10nHayAUAVz2I2fPDqPyIAmk3sq1ZPCoJa0wrhaPlZJBvV5Om5uURfHJzqFyR2SWsii7xpWmCdiR9GjLimndzydbnk63PJ06tTrw/b5pzVvjO+/0t/ax/HrqvMyiY9su5hT/AJD1eQ9UHIGxrjiA5gCYiSY5z1xcMVIs7WkaMHWKTUTLFRzgBTZolTbNh5asK4WpLkNId27MpWZNWXDaYJ2JH0aAoS4b0CJpbGLIc6BE0ahLZw/b5pzVvjO+/wBMe6KKDLZM89QmUXYFgZPqbMmVYIHdtR7/AO0FmBb4dR2RilIyYaNHe9WCEWs7WWs3am9MFurp1ZA5Z2arCuFqS5DSHbu7KVmC7Jg9ME7Ej6NI3kKP5WpHkh+3zTmrfGd9/wCnHg7hRWcGWSNUajy4/PV/9fYAJcDLjTmDxsgiUybD8JKNKEgJN9cYG2AHPyjccLe973rCuFo+MkFHdKkqTESar4zBqCXWXSaDCNME7Ej6NI3kKJxw9w6lxZppjNrpZyaJPMlLfGWRhpxe3pajBXw36HYeIcx/Hv11zEqNHNGOkFvRwrpZabfi2Yv2emfZFJfFdFyslFk5YJS8sFtRmUmu2edcec0x+dGj4/dYNbrBrdYNbrBp7LWLWk5441OuNzI8aO7lISm9BHLNFbqj6InZFT/XJWgZs4NG55Otzydbnk63PJ1ueTqQMeOJoDJGBQDcmPfs4tTi4CctGjbtZovLHFIcWpxf+9v/xAAqEQABBAAFAgUFAQAAAAAAAAABAAIDEQQQEiExEzIgM0FCUiIjUWFwYv/aAAgBAwEBPwH+9gXsugyNtvQfCdqU2GoW3KOJhaNkZIviozDJtSng0bjKKJhjBIyjNe21q/wg8N2LVDokv6VI9jHVpyjhbIzblYeEG9S6YdLpasQyNvHgh7wp4y9tBOaW8oYqhVZRdgTuVAPuBYk0zKHyxlF1CPpKqb5JkZmJsrDN0lwU/mFDlCZo4arETLpENa3W0Lqs+PhjxXo5WyQKXDercouwIyQ/FRSR3TdliI3d15Q+WMmaPcvs/tYTkqHvcpZQHEUmO0nhMArU4Un4jV7VHiPQjZSgM3Ddk42bzhaHOoqeBrG2EHFu4UbtTQU/uKi7AncpvKl7DlD5YywrQQbUJD7sLC8uUPe5T+YVG/QbXXfd2i4tjs8rDSOeTalmcyQ0nHUbzBpDEMeKeunD+U/EtApmUczA0brpw/JMELDdqfEahpblFKwMonLCva0G0yeNl0opY2Js8bST+U50LjZTqvZM6TNzunS9U0dgonRxDlPdqdf99//EACwRAAEEAQIGAQMEAwAAAAAAAAEAAgMEERASBRMhIjEzMhQ0USBDcKFSU2H/2gAIAQIBAT8B/ntxDRkr6yad+yLonQ22jIflVeIFztkmlizK2VwDkK9kjPMU4tQDduyqV0zHa7zpZsytmIB0nGT89q5Z/wByfE6Tq16tmavjv8qCKWWMP5iCntSV5u7q1XrTm7TGUJyyvzH+VRmmkHf4/RbBMLsKnOIZMlMka8ZaU/hmXlwdpa9zkz4hXSBA7K4c0mbOlv7g6WuQHZkblb6n+ClsMqtaAOi4i/mMY5UvQ1OGRgJ1SRxBL/6RY6xNtzn/AKmuke/kyOQrTD9z+v02OG5OY0RLA78KrxEk7ZNLXucmwWsfNWq9gDc85CoWIz2AYOlv7g6Tc79vCzb/AAFxTw1W/TEqtdzogd5UrC8YBwpnPLuXG8lRUeWOj8FT0Se4OyVWc6Xtc8gqNpa3BOdbT3RxFzVSuPmftcnsa8Ycp4+XIWhRZ2DKte5yZ8QpMbDlVfc3H50t/cHTiUj2ObtKtB8Ibh56riXwYrfpiVL0NU8PNbtzhfRw7duE2Nsljazwr9eOJo2BVqrJYG7vKjYWNwTnUgEYKdQlifvhXPuYxsUPD3udvl0sVZnSuIahPaAxsUrrcrdu3Cp0TEd7/OlmtK6YuA04jC+Rw2hS055gNxHRWa082B0wFJTsSNa046KJlqNoaMJm7b3eVN9TL2tGAoq30zMsGSrMdiyR24UTOWwN/n3/xABBEAABAgMCCQYNAwQDAAAAAAABAgMABBEQEhMhIjEyNEFzkjNRYXKRwQUUICMwQkNScYOTobFigaIkkKPRU4Lh/9oACAEBAAY/Av79lyWaK+c7BFZmbCehCYxvTB/cR5qadSf1AGCtID6BtRn7PI8YeW6FXyMkxykxxCOUmOIRykxxCOUmOIR5madSf1AGL60hxr30eQ64+pwFK6C6YUoOP4hz2tNrNEqUATGuq+qmNdV9VMa6r6qYclXnSllN6ir3NGuq+qmNdV9VMco/xCKOTLiPisCNdV9VMOtoNUpUQDYp4vpbbGLFjNYuvJyTorGY2Aom3EkjakGGwqYS7f5hSG2U51qAgqlHA8n3TiVFx9pTauZQ9A3LIxXzjPMISwwm6hMCWlaYUiqlH1YvGdfr1oSmcXhmTnJ0hAUk1BxgwfCEumik8qBt6bfmqsfSmbfADiqC/wBMa6/xxeTOO/8AY1g3wEvN4l0/MEEVBhSEcksXkWzG87oc6ptwbDanFUrRMai9wxqL3DGovcMJ8YYW1ezXh5Evuu/yAhR8y9kq6OYwpt5CVoOcGG5WSfwyFrA6vRYUA4mkhMGfcGSjE38YvOG8s6KBnMF59VeYbE+gdVtS1i7bHScxSmnZbLFRxhNIW0oiik0hSeY0s+aqyY3qvza4nYprvslTtoq2Y3ndDnVNvjDSUqVdKcqOQY+8cgx945Bj7w3hW0JwdaXfIl9132ty7q7iVZzGvr7RCGFeE1IQE0N0jK+MJmW5hTpRsxRjNIceXNPXlqvHNBbb8JLu+4umKC694TcWtWckiNfV2p9BcUaYVN397AHMlxOisZxBVcwzfvoszmNI9tvzVWTG9V+bXpsjJpcT32XGzVDIu16dtsxvO6HOqbWkOYkFQCvhGsj64jWR9cRrI+uIcQ3jQlZCfhWEEyzOiPUEXG20ISGxoilkvuu/yaCEpWPOrylwnwe0rHpOH8CEOE+cTkufGG55A0chfd6IKSaKGMGEszKg3MZseZdpLjN1fvoxGCuX/qG+jS7PI+aqxbpmXwVqKtka0/8AaKrcecHMTSAlhglKcyEQZdEuuTB2q0j5ExvO6HOqbUtoFVKNBGq/yEar/IRqv8hCm1iikmhhvqiDuk99iD4QcSlYTk1XTFCyh9F66aedsS5OTWDdqajCUjXv8whuaavuUxpqqogB59tsnNeVSFOOeECpSjUnDCCuX8IDKFCC6KGCKpdacFMRxGBh5hxuua85SNe/zCGhIPYUEG9l19CElWGbHqr/ANwEuKMuvmXm7YqkgixU3LpuvpxkD1//AG35qrH0JnXgkOEAV6Y157tivjjh+OOPF5gBL4FRTMqC0+2lxJ2GBdqplege62Y3ndDnVNqXE6STUR7Hgj2PBHseCFOq0lqqYb6og7pPfZL7rv8AITM+EEUTnS0dvxi400p16mSkDEPjCn30OqWr9Mci5wxyLnDFMC4thRykXfxFFAlB5xRSTGWL7XquD0CnWFNAJVdN4xpy/Ef9Q5LuUvINDSzzarze1s5oRMNaKvtZMtJzBeKz5qrJjeq/Nss4P+QWKXtbUDbMbzuhzqm1lCxVKlgGNUHEYLasEFA0IvKjVBxGHkIFEpcIHbDfVEHdJ77Jfdd9onnFpwwxKv5wegQWpIFlHvnSP+oaZMpfKEgXsJnhxzAYK6q7nrWHZkpvXBm541H/ACQzMXLuESFU5olHJdwoXeP7xgPCLaW64iaVQYR4iupXlFINUgeXMSxOkAsWOnY5RQtermwuLssmljNfp2YrPmqsmN6r82yyBtcFjg99SR97Zjed0OdU2y+8T+bHt8fzZMb1X5hvqiDuk99kvuu/ymmlaZyl/Ew3JJOUs3lfCyXRzNp/ESrfQo+hbmGtJB7YDzCusNqYF1Vx5GiruihlFq6U44ALBZT7zmKESzeOmc85g5QL6hkJ74qc5s+aqx9SZN4guKIN3pjUX+GKCSe4Y8amqYalEpHq2Jl2DVprbzm2Y3ndDnVNsvvE/mxx5KmbqnL2l02TLsszfSH1DS6YQk5wkRhpdm+i4BW8LGVyzV9KUUOPpjVv5iMDMIuLpWlbMGw0pxXMkQJmdoXBoo2CMs3nfVbGcwqbeCjfOemKG2W0E1OPoEU5oUgHE0kJ9FhZd1TauiKTEuh3pBumMqWfHZGRKvH4kCKMNoYHPnMFx1alrOcm3xd1p1Sr5OTSOQmOwRyEx9o5CY+0chMdgjzUo4o/qUBBbvBps+qjb5DjbzbiipVcmFJwExjFNlrTqsyFgmOTmOEQstTTiUFWSOiNcXC0tFBvqvkqTtj2PBHseCPY8Eex4I9jwRh37t+lMQsQ14n50Chu0SDF1q5Lj9OMwVrUVKOcmFsOMqdSVXhQ5o1JfGIKZaVCD7ylVhS1mqlGpP8Afu//xAApEAABAgQFAwUBAQAAAAAAAAABABEQITFRQWFxofCBscEgMJHR8eGQ/9oACAEBAAE/If8AewoY2RqFBFwPtz9IITC7XhFltMvhTqeGiQyLGNChsADDouEeFwjwuEeFwjwj+w2HwjMQVmAajD0SgOqAZnsnPMpEttIzuWkzAn0AAAEyM1AO6U6RAA4Z4QYTGYHjoATOWk7gGB8YkWfCwCnFm4+uUAXuEtL7IsSeQCkAMUNskZbMrkvmsUfCSw9g/ju4BQWIHUm5zTB1vDswYXXQhDCPkMYTqvihfA2GIQjM8BT5xocKQH5KATAOX6NApPJmehT9MABQXoCCWAYgiRCE22gwajoY7SnNWRrDBjZOW9F73xZSkdo09FvHd6DMeQO0JA4xyskIJJSdU3YyQkGQH46kqe6NU0exxHpRS/lPfiM05zUHQsPYJkTHyCDzLppk7vFmFxObEhH0SjncIh2pvhChwpDjLogbUP0CGRc6SjtKc1ZGsKYOjmYt9eilKa/sJu19F1EKei3juicSeQFpSzQw1Y61hjluJeE+v9iJAEjJOIAXKN3nSKiUANMGrBHEDBFvM6WWfYQcEA47h2g+34nMwqU3BdtRUQAQwENV+yjQ4Uhxl0ZXzBiKl38IMySuoXfiO0pzVkawKi5h2Z05+jZZYyriHdwkmje5JOknHk2xTqnot47vQ5uUyOEmgCIxnRyaDoEMVFARpwf4Q3pExlx61Ru1rbF8y6pzcpzc+wQ+aAKgoa7iaTMGeURwA/AxT3m5ysA7uiIIJBDERocKQMqAABocvZfm/VDA+wgH4CIUbYcPuijLaIZWRoOno2lOasjWDSAAXJWS55rJ881kueaeQGOxBXJWghT0Te9gYsiUIEn1aUHCqBnK8pQsZ2/9saICdXABFHamKnFVx4e6CZc6kXAItkGXbQs5VcTGl5U9kDdcuRpUncD+BA01TBBcGAPYTJRjFQ4UgEkqKRB8FBrg0E8OeFDjoVhcyeMgobmSVFyjtKc1ZGsGD2bwk4XD/a4f7XD/AGmTXDQk5LrkrQQp6LeO6IEgAHJoFr5JM2XJP3GZ9Uh2R+DTJOWQyX6lfqUyz8HL5sKw3H3CoUdulMhI62PsNMyBQXZ7Q6GYN8G4gCPnM7NpYo85ZoaliCighMeQsDMd4UOFIcZdExLEA6Et5gbgkc6lvMdpTmrI1gwMGXBK4b5VgC0DZcN8pgYPsAnJWghT0W8d0TFtWL2XmQ02ZHYEeSClMwVoiHWGmUeyqREHs6y0uNE4Ls0vMgGD7oDCRGKdOBc9RspSyyWTHx66DYOkj4gQ4kFXkx3ESROb2TwOiDJkZPpChwpDjLohacl/BeB01A7vEdpTmrI19PjuC5a9claCFPRbx3ekAksA5KEi0utgfDJ3A27DT5PaGQO2Jyw3oHslCqGNAxCEsIxTMsUeQVcJEXZIj6XZ+FjIxQdKo5JCctTVKHIIwHXVkEZncjk3hQ4UgDb4JSHQCIvZuwIicm5HAmp1RLBynGPLjTLyEdpTmrI19Hj6AAcnaaywT1hIsE9SGCwA/CMMG4TD3UgDJTg4zQx1LI8c0YNECYMjpAeI9wmnzwcy3NyiojMJj5LBGkuJ9I0TDL3AScmSgDGgME6C6tqe/tCwBxOut0KXn94CNE1yf5Q6Z5B3KITZxky2RDguW5MamEIMnqVynyvyvsvyvsuUeUQ6cjZ0TEjGWzM1PoYebkQzM2JQfuHos1iLwloqsCuEeUU6QkAk6QX4I+k8Fl0ElVZvLVZnLVZvLVZvLVZnPVGE4CiDCD9hrmQx4ESBJ4SUSFrluSpakaiia4Z4RIHpJejIhUwRiT/vd//aAAwDAQACAAMAAAAQAAAAAAAAAAAAAAAAAAAAAAAAAAAAAAAAAAAAAAAAAAAAAAAAAAAAAAAAAAAAAAAAAAAAAAAAAAAAAAAAAAAAAAAAAAAAAAAAAAAAAAAAAAAAAAAAAAAAAAAAAAAAAAAAAAAAAAAAAAAAAAAAAAAAAAAAAAAAAAAAAAAAAAAAAAAAAAAAAAAAAAAAAAAAAAAAAAAAAAAAAAAAAAAAAAAAAAAAAAAAAAAAAAAAAAAAAAAAAAAAAAAAAAAAAAAHvHVAk63iAwooCiSICfyONAAAT6VoqUCCuABowxADlXAmLDgAAAYtrIUitaABo/8ACKi4+naHIQABe0vIFAleCAaHqKqqUYU5aAgAATwmIE0k2gD6OqCkwgOcYYAAAAAAAAAAAAAAAAAAAAAAAAAAAAAAAAAAAAAAAAAAAAAAAAAAAAAAAAAAAAAAAAAAAAAAAAAAAAAAAAAAAAAAAAAAAAAAAAAAAAAAAAAAAAAAAAAAAAAAAAAAAAAAAAAAAAAAAAAAAAAAAAAAAAAAAAAAAAAAAAAAAAAAAAAAAAAAAAAAAAAAAAAAAAAAAAAAAAAAAAAAAAAAAAAAAAAAAAAAAAAAAAAAAAAAAAAAAAAAAAAAAAAAAAAAAAP/xAAmEQEAAgEDAwQCAwAAAAAAAAABABEhEDGhQVFhIIGRwXDwcbHx/9oACAEDAQE/EPz2iBuw3Sj9qwG+PRyeiDahDbYZ6emZBpUbhT9sLymHOBUQVYi2zocImRdRQDF/7Fa39vQwu7zqMi1GpWq2O8ZxJuxmiGo9dONpcFATxPmPWQni2vvSIApcGTc8sNtvHmZ5Ou7FG3m+ms5YYCkhg/HpxIJbh9KzD5WP6042mNu+0rv4SuHxOWfcZhfMCxtD14ljNjzAHFgCowLArULtsJd2MWUxHesoUbWziTdl613lc/bTjaVYGJgceJ+73nLPvSbIv+Z5RLX7OZbG6lhMdvaGoK1RWSs8Bb2yp2hU5VFG43ZpA6RobyNLU1EaHMvXNu8CtwzZtmR0zDa3aFewWb18RG7/AM+//8QAKBEBAAECBQMEAgMAAAAAAAAAAQARMSFBUWGhENHwcYGxwZHhIHDx/9oACAECAQE/EP77UNQI2tc01Zj7DL/SAgxbO+/R4wCw5mSrdLzJIg99r++jPwHt0cgwssO88VO8WHhTLH3mEW4uKd4kEV2gQBlOYi3msHYKi29KYPvA61Ry2lTA3WXv/Ai0TK+lJS2SYEFWtrcwtOWzgE10FILFga/inTmnwQlCQnQr9zc/j9zGZq0NM/uCGUqL8TgfcRUouekqg0tgwmR9hgyM5h+FrDiW/UAoKno/glZWH9n6Ziir8/MAZ+ffv05bFlDTzaYJt5bCD9/e9+nNPghEUpozrWeKyvHvj9ThP1BGGw4XlUncSqct9PNZjCpelIK07rT51iiU5du0FMRm9bsZGtG1TiISqMKzhjT3UPictnAJtKj8RJsnTmnwQhAhg2aRkZRm+neNUd/gnCfqcD7mJEM6Z7TDLCevLKPr+C8baCur9xOGaiXuwixGb1dBUZWRWltecGKUBXXxlUudUzfXLooZFYYyfNZbWb/6sqk2GnR/aL26LLNBmxMX22jmyL1yvMAphMXbtA7pPWYD3KWlWltVrfz0iNWd8sNpVKkbjfzSGDkf37//xAApEAEAAQMCBQQDAQEBAAAAAAABEQAhMUFREGFxgfAgkaHBMLHx0ZDh/9oACAEBAAE/EP8AvY0IZvvdsdM0s6SZad8PlUL8kEV/i3USXzR+yZBDdV/aaCgIjCOjxPImCyxZV7+mjRo0Xn/XMwL5rXeOg86/Vjn6BymJAjdKvLSlBsxyJPjSQ8HAh4IYLLYgctebfVebfVebfVGBDZxDfuk9682+q82+qGJKySQ5GJuCLV5t9UpFPBJAZLNtTgAzIkiSTILgy3dN6v54AXoOnMvRdignpRBAsRKO9G8OLTLhUhWM6NEYCxeQJ+6cBFwQOQ/4dK1A3FpuTZOZ+C3NGGYrx8ge8Vb3oDqm1WrT7ZAQ2CWlCy4OtZKiZEOxahyRKQriDDKOdKLG1CRCROSNKJyzhWLDQ53L6cfE70aIKpOAACbAV5L90qJGXvFIViloIxYaDDbRKSvyfIIRNSmmhFvk7InSOPktteB31k4KS1YkwLGxJ71/VV/VV/VVEu2D0x0k96g2PaoNj2r4r9UTAUUGx7cYqQJZPwLDyeVIeKDKN+UZnSk6cy4kzYxCyd70QRgIKEJbnR2vcUt+KGs5B9C9S7UqGtHTbvyLtLTRLizezHoc8uv4CVKi2QPxwPOSaWYrOzgKOW4IZgz4Cig+6biH3WRMnVJ9cPE70cejtNMpnSWj8vAhkkq2hZ8rx8ltrwO+snB6kamFLa82V5X+q8r/AFXlf6pRfMiUy5Kk/wDQruNfFfr0QlMXGGKTZkoSIkwlmmSmsUBqGYwtV3EjqALuBYpgYxKQHenpBpFIYLYMdqZQ4b1GhU3tZ1GpTkF15cg0CxQU4ypz63oFq5CF3kcAzmIBdyjU2e0VPzu5EW/+4c6RFEhM0WFNBhXiH3Sqysrw8TvRx6OwH6byIHSB34D1gKSuSOQx2PHyW2vA76ycNSC8YBbLTf0HXXHZskaAt1gvrT+0E5EcqEhDGCpqhlsV8V+vRCFGSv7lXAcEhVcBUwRTuRfpDrNKjLCVt5N5u6UAIiZcDRsI7mmUIGwbK8hPYr+5X9z8DttlgTIjuNB1BIFbmBarXHEEuuOfdgjuGjrgYdVvBtTNkIiQiZHj4nejUu2ZwZBON+At0+T3dRMd6jzrmByEHzQIPXBqrEHc86VVVVcrx8ltrwO+snC/Y9wkQEvN9HxY8v1MEbIknMrz+2vA70+K/VPGi6bIrBm83ouRgMpWE3vFbU9yxihBSJuVz/jyoAshiZGEExk0w07boIMSC4mnv9XrMrijeOg/lgXLw82iAOdMSIJ4JQjd2nuYm6K5/wAeVKJtxGAJBFp/CZ20HA2wO8nKjIoxjm8m3vFCsOHA3EzwU3eMBkyDQXHXDSQw8PE70aBxOgCQBbAV/N/5UmeTdHUSiTjDwPINDKbXMNGEK4WHccrmXoKZ5emVqkl9R68fJba8DvrJw1l6tIEk1JK5tDm0ObQ00Y9JKDQlrz+2vA70+K/XohKXcAEquApwgwFGyGnuOu1RcoFxRYCANBd5ZqR+iMjQIsNAryn6ryn6qLYADDq0YOzrvT+7VrE5ASHs8yrTp7faH6z2/Aw2ANwYCtCcBElduFYGyhvtwSRovp6/aO800RP0hbmhtQkRJoJJtbMvbg8TvRx6OzeE+NZU7i4G/deQSTvxeS214HfWTgWV91IES3LgkS9amUWHLerM0Qsp0qygF9grz+2vA70+K/XohIVNQjzA3IQC8y9TE4g4uS58npT02mhYFS7uc1FucM6KZhESUDMjmYgShi7QpipUS2thMTBPtR8MquSXFYXw1qwHINrLPnJzKlwTFOZXEV3MB09ZCBYnLOHs+ynFNhG0WkfkOLDp92CXh3pxRCAkLMEuDxO9HHo7IOQA0AT7HBNyKZusP1fHyW2vA76ycPNbK0rxO6jHtwOef214HenxX69UIm5EAEq7U4EqzmvZB2oI4oG+KfC6nDGYaM4iVOZJQSxLh1+h+EekWdsF5JJSUQAJY3PTk4clSIOZp2YbyyOj3oE0MBnNCqdoEmAG+S6BR4DRIuCmkumhFJaWSQtotMnNsU6lh2Usr78PE70adHUJUgjslf3dAhakV1VgqXMGoIDhZa1gnegRAAlXShCsHSuy7gsOqvHyW2vA76ycPNbKKK4PwSwSaorAOlDotzsNSEOEqAQTmYQDR7UPlSZCHUoqmQDRMWcvpiEaPBpjFEJwMpNOGuigs5sWDmwVLd49tT4DQLHNqZ7c+TR/Ye0066akBFpogBBE06ZG2wkrABOaH2CBsBFTAtYxn84Oo/iMhUMQGwwOTR6osknNIT2KHsVuMfeH6pTbdj3oJ8UC7EgpdABSbGgburxFGcvIxgsM29MkePF7MV+xFA7dlOQexyseg1N3EAwYL2oUYEsYqP3pZZ4H2hjKAsc7cKM04ltlJbQjhWFx69f0yZ9VSVQSEixfrRFp58IVdwbWDS8pE3XmpRJElg+J5gVJfIF+6t2sgBCtAIRzA+9B4DpUHAkS7nCCeq9KatxsrJV7/wDe7//Z" vertex="1" parent="1">
          <mxGeometry x="201" y="510" width="48" height="48" as="geometry" />
        </mxCell>
        <mxCell id="sPfLZQJSzLfNbBtWYW_q-2" value="" style="shape=image;verticalLabelPosition=bottom;verticalAlign=top;imageAspect=0;aspect=fixed;image=data:image/jpeg,/9j/4AAQSkZJRgABAQAAAQABAAD/4gKgSUNDX1BST0ZJTEUAAQEAAAKQbGNtcwQwAABtbnRyUkdCIFhZWiAH4gAEABkAAgA7ACxhY3NwQVBQTAAAAAAAAAAAAAAAAAAAAAAAAAAAAAAAAAAA9tYAAQAAAADTLWxjbXMAAAAAAAAAAAAAAAAAAAAAAAAAAAAAAAAAAAAAAAAAAAAAAAAAAAAAAAAAAAAAAAtkZXNjAAABCAAAADhjcHJ0AAABQAAAAE53dHB0AAABkAAAABRjaGFkAAABpAAAACxyWFlaAAAB0AAAABRiWFlaAAAB5AAAABRnWFlaAAAB+AAAABRyVFJDAAACDAAAACBnVFJDAAACLAAAACBiVFJDAAACTAAAACBjaHJtAAACbAAAACRtbHVjAAAAAAAAAAEAAAAMZW5VUwAAABwAAAAcAHMAUgBHAEIAIABiAHUAaQBsAHQALQBpAG4AAG1sdWMAAAAAAAAAAQAAAAxlblVTAAAAMgAAABwATgBvACAAYwBvAHAAeQByAGkAZwBoAHQALAAgAHUAcwBlACAAZgByAGUAZQBsAHkAAAAAWFlaIAAAAAAAAPbWAAEAAAAA0y1zZjMyAAAAAAABDEoAAAXj///zKgAAB5sAAP2H///7ov///aMAAAPYAADAlFhZWiAAAAAAAABvlAAAOO4AAAOQWFlaIAAAAAAAACSdAAAPgwAAtr5YWVogAAAAAAAAYqUAALeQAAAY3nBhcmEAAAAAAAMAAAACZmYAAPKnAAANWQAAE9AAAApbcGFyYQAAAAAAAwAAAAJmZgAA8qcAAA1ZAAAT0AAACltwYXJhAAAAAAADAAAAAmZmAADypwAADVkAABPQAAAKW2Nocm0AAAAAAAMAAAAAo9cAAFR7AABMzQAAmZoAACZmAAAPXP/bAEMABQMEBAQDBQQEBAUFBQYHDAgHBwcHDwsLCQwRDxISEQ8RERMWHBcTFBoVEREYIRgaHR0fHx8TFyIkIh4kHB4fHv/bAEMBBQUFBwYHDggIDh4UERQeHh4eHh4eHh4eHh4eHh4eHh4eHh4eHh4eHh4eHh4eHh4eHh4eHh4eHh4eHh4eHh4eHv/CABEIAZABkAMBIgACEQEDEQH/xAAcAAEAAwEBAQEBAAAAAAAAAAAABQYHBAMCAQj/xAAaAQEAAgMBAAAAAAAAAAAAAAAABAUBAwYC/9oADAMBAAIQAxAAAAHZQAAAAAAAAAAAAAAAAAAAAAAAAAAAAAAAAAAAAAAAAAAAAAAAAAAAAAAAAAAAAAAAAAAAAAAAAAAAAAAAAAAAAAAAAAAAAAAAAAAAAAAAAAAAAAAAAAAAAAAAAAAAAAAAAAAAAAAAAAAAAAAAAAAAAAAAAAAAAAAAAAAAAAAAAAAAAAAAAAAAAPn6MZBzW2h9Xyffcs+6s4215+nJ9aDPji9tyq4p7c4F3RTet4Tp9Tb2gUV8ObOKVVeXy6zke/vgdF17LkOW6sAAAAAAAAAAAADnxbcc9tamlDoed0S54vs3N9L9fP1R4M/MIw6Gglu2Em5kBLxD3r3dXrDx/ZKJdsWsK7mHRc51bTSrzznSBWWgAAAAAAAAAAAADi7WfOF/FuqPYcc0zM5TTu2P+f8AUcUqboLGvukjeFdOyUdDzk9rOEa3SXkPnndw2VY9vG7evN56DkewDGQAAAAAAAAAAAAAI3G92y65payc95Rc0aQLNa6pucaTZxRXeRwmp5Z1XKOvkS4YZx97RQ9IoOgCouAAAAAAAAAAAAAAAENMvfjCIe40PqOXDVIsO80+4UlyESUxzY6nYV2aDpuYfv5Z9e2/yJx/Yh59AAAAAAAAAAAAAAAAVPEf6awG0rIOZhtglxbz+lBegPn6MYtw6JnfW8i1+gavWWgUt2AAAAAAAAAAAAAAAAApN2/Pev8Anf8Aobn692oI0kADyxfbeadAiZ8iSw8bAAAAAAAAAAAAAAAAAAAAAAAAAAAAAAAAAAAAPmKlsPsK7cOfjqurdce7I9cz5jurHdW26pMV1kAAiJXCrCu3d5Zzo36Xxdudl566Je8ZcvVScZsklhWvS4krF9GO4zuArrIAACKksy0abB6hCnAAAAAMo1ei2Fd2VPvj7Ks4dYovtr2VfSqjFb9HUmPEt0fVrZBn0pcalOg6TjOjZz49aHnu34izYu/RM7jSYbxmrjIj1/6pF38+qn9y/wC7493x+2VPxs1/NNIr0GdU7pGRMyFz6rndg0SPSOhLt5zQtQx3X/WO8Ut2AAAAAgZ7z2a8RuVX0noOe4c62PJdey60vUozRv8ADqoP5Ij3mj32sePc9V/z43aLVnWl0I2LEN1yqHN1bO4ifzj9tlas8aTj14qlys6uG0GjaBWWmLeGl0G4prNwWGkR5NmhPT2967XR9Yx+LK8dnod9078R1/LdU3x+0Ut4AAAAAAAAAAAAAAAAAAAAAAAAAAAAAAAAAAAAAAAAAAAAAAAAAAAAAAAAAAAAAAAAAAAAAAAAAAAAAAAAAAAAAAAAAAAAAAAAAAAAAAAAAAAAAAAAAAAAAAAAAAAAAAAAAAAAAAAAAAAAAAAAAAAAAAAAAAAAAAAAAAAAAAAAAAAAAAAAB//EAC4QAAEEAQMCBQQCAgMAAAAAAAQBAgMFBgAQFBITIDAzNFARITVAFTIjkDFBYP/aAAgBAQABBQL/AFkvTqaVMcORzTNc0zWNmvlXwTSMhhS0Mnm5pmuaZoOxJiKRUVPBkR0jSOaZrmmaAkNKL/cygXcWZw5ET2yx75mZ2x43dD98cK7we5UzRx5ZHSy7YwL0Q/uExNnHmjdFLtjBXXDs9zWMtClNO0K/6s2qCeKdvlBW4kLiCImNjj/dygXpl2AIUUtqo5usvN7AOw6qku9AVyAdTSNiiJmdORti4v2/eOgQkV7VY/bGiu6Jq7M51jtiIfIsL8XjnbURXGO1k5XTFtBG6aYeJsEH7+Si9srarJ4puVG8as3oQ+DW3gvJB3qTEnrjp1JK2xcXqk+AsxuUEv2XY8qQl+2Lhcuy2uheKdtFPJFDsxqveFAgwvwORC9g3U7+iPfGguHWbZCL3wvDjIvcJ+CuReUDop/VJtjwfNsvBaDcU3dEVVrRkFD+DyODhlb4mHxq7wZKL3Rd8cF7xvwmUh8qs2pg+dYp9k8Dmo5p46il7U43FB+FvA+DY6w8LsheLJxeqHVCLyDvhsvC74FaK4w5jWsZ4pWNliKhcORRC8YH4ZyI5sIo0LvIePBI7/3z3I1v8mBpF+qETwjtHMGIfqY4SGSCWOePx/yYHgILHHUcmAjcgiEdIjw5JNPcjGJZAqvkOsQmuY5r2eY5Ec2ZixTVEndrcrl/yUcvas9Hyd42qi7Nd4nf109emJL0z66yv3OJb5X6LVVq1JiGCWHsIPX8ieoPdOGx0Ynm5BF27PFpOoO7k71qRG4QwidErhI+8TcWSBNa6yPestiBJUHodDeWbhVY6yK1EccLKES0sPWQkkwv1FY2Sy5X7muPcFCtgcrqS1klmyv0a8VS9VRahFnKjq6D17EtoY0htgZK99gK6msHmskNPilFlScfIy3jwY7KUROSeYhALlcF5uVxfbGp0iIqmKTbZPF0HTE/XGsbi67KylWY+vt4RBLS1iNFx16stLGvAWSC0rRYbomEsvF/Yam9u3+2sr9zjI7JSLiFktcIv0Lyv0cV99kYXalqjequg9exDhLYLNU1z7iyELDx78rksHbOxibrDyGbu2NDB2K4r3Vd+P8ANv4u7WRvVi4pF9Zcoi6gut3axWL6QWEaxHVIVeSCWHUixVy1Di7Od5BoVKLx7yAcYzF/Y6m9un/Osr9ziWrH8eN7nK/RxX3xETJ4SoZBCoPXymd6Po62Ixl0AEKFj35bIYO9X0paCFCxuLORERCvdV34/wA2ViSRKEWi0EDoK+wi74XDL1TwrBXXdZy9NcaC97jDn0dcojbisniJHJtEYXXmsdjkUkQfDL1/1Y1ZA8o8llrJoJpSMYhli0eiuBHEKQjJopZYsagniM1fg8oeEQpJsgAkKbA84R8wtkVBRDER2bkRzSACo58bDkYRokQpSQEVoP8ArC//xAAsEQACAQMDAwMDBAMAAAAAAAABAgMABBESEzEFEEEgIVEUIkAwYXBxJFCB/9oACAEDAQE/Af42ulkhlKZq2umikDE0Dnt1CQt9i+K3H+a6VcnUY2PYkAZNT3LySFs1Zq88oXP6/VYNSbg8dumT7kWk8ipH0KWonJyanTS1I5RgwqKQSIHHmuqz6I9A89ulwaI9Z8/rsoYYNTxGGQoasp9mUHxV9Lk6B2ms9Vtjzz26TccxGrufflLVbQ70gSgMDA/A6tBkCUUBk47Wset+1/BszHHBoEjjt0mDShkPn8GRBIpU0kBjchvHa0j0J/fbqUG7FkcjtDEZXCCkUIoUfhX0fvrq3j3Hx6LyDYlK10iDmU/hyJrUrVvBtD0Xtn9SBjkVFGI0CDx/pr+7e2xpHNT3O3BuirK5Nwmo1aXjzysuPYei/vGttOkc1PdxwY1+au5zBEXFWsxmiDmrqUwxFxVjf/UEq3NXt41uyhRz6bWeaRiJFx6+qR6oM/FNJu28UX71A/0zypUMrW9sWXljREW3r3fvpJ5p7XKn3+alQRJrWXLVfyGSKJj+9dVjKyA55q6gaG2bU2eKhtppLfWHwBwKSdpbNw3ikhZYFuE5FX04n23FXqSPIAz6UqN9m4CRvlTVk7RXLQsajdp704PsK6Y7NK+T65U3EK/NdOhYzjI4rqkTbupfNTWbNaIF5FC7jEena+7+quo5jbA6cfsKmZJIcRR/9q6RtiL2+a6tE7BWUcVcXP1Ns2F+KswRZ4/urdG+lkGPiumr/j4arm0aGXA4q5Gi71yrlaI1XKMqYHtXUUaOVZkrpcJSMseTXS1IlfP8Z//EACwRAAIBAwMDAwMEAwAAAAAAAAECAwAEEQUSExAxQSAhURRAYSIwcHEkUIH/2gAIAQIBAT8B/ja1ZJog2KuLZZYyoFEY6adEFG9vNcafFapbDaJFHQAk4FQWyRxhcVdskMRbH7+lT7X4z56anBxy7h2NRR8jhaAwMComyKdA6lTUsZjcoa0uDfJvPjpqk++TYPH76sVORUEoljDir2DmiI81YRYG89IrzFznx26atB2kFWkHDEFq5m4Yy9E5OT9hpM+CYjROOl3Lxx9LGfmiHyKIB79NVn3Nxjx9jG5RgwpphIgI89LyXfJ/XTTZ+OXB7HpNKIkLmnYu24/ZWEvtsNXMvHHn0Wk/NEGrVp+0Q+zicxsGFXNxzH0WV59OTntUshkcsf8ATWNqlxnce1QW3JPxGr22Fu+BV1ZrBErZ9z6LGzW43bj2qC1knzs8VaQiaXYauoRDKUFW0QllCGr2w4AGXtVlZrOpJPb03MEMagxtn16Y+2fHzSx8VxJL+KnT6lInqaIXFwFbsooGXk2cf6KeCGC6ww9qiYyvsaPC1YRiOWVR+K0uQNGRjtVrOs1yu1cd6muYY7jaUyTTwLFeIV800ytO0D9jVlCYd6GrJo0jJVdzVInNbl3XDCr1FktlmUVIqwWQ9vc1qaKsSYHrifY4b4rUZlEBwe9aXKvFtbxUN4q3TFuxo2khfdyfp/urWSEXBG7P5NRK8c2ZZP8AlWzrzy+/xWlSqpZSe9W9v9NcLlvmrwg3ef6q4dfqY/f5rUW/yMrVtdLNFk96tjvtdkTYagdts6s+T71pzq8TQvWqTB5Ao7CtTYGJMfxn/8QAPxAAAgECAQgFCQcEAgMAAAAAAQIDABEhBBASEyIxQXEgMkJRcjA0UFJigZGxwRQjQGFzgpMzU5ChJJJgovD/2gAIAQEABj8C/wAZJW5Fxwp4Wyqe6m39Q153P/Ia87n/AJDT5PNIzt1lLG/ReWQ2VBc1I32iVLtcKHOArzuf+Q153P8AyGkeSeV0B2gWJwq43Hork8ErJo4sVNq87n/kNedz/wAhpIRlWUYnH7w7vxqZWo9l/pnSZd6mlkQ3VhcdBMiQ7Um0/L/75UG6GpY7UWHu6DzNuUXppH6zG5ztlLDF8F5fjXhfcwtTRv1lNjnbJWOKYryzl2NlAuTUuUHtHZHcOGbR7s6OTsHZbl0EyRT7T/TOkK72NLGgsqiw/HLlSjBtluedJhwOPKgym4OIzDJkO3Nv8OdbY3w6AVjtx7J+mZpH6qi5p5n3sb53yth7KfX8e8J7Qw50VYWINjnMDHai3cs0k19jqpyz69hsQY/u4UWUbEu0PrnW52JNlsy5KpxfFuWdYk6zGwpIU3KLegBlCjZk3886S9nc3KtWh259kcuPQjiI2ztPzprDbTaXoCV2xjFn91PMe0cOWdsqYYLsrz9AvF2t686sc6abXEa6C8s6sw+7h22+mdlA2G2lzyxIdmUWbOEUXJNhSQr2R6C1ijYlx9/HN+fQXSH3ku230z6xRtxY+7j0jlDDZj3c/QbKBtrtLmtwGdEYXjTbfl0Xi7O9eXQsN9JFx3tz9COy9WTaXoa1h95Pte7h0ROo2ot/Loa1hsRY+/h6FLqPvIdscuOeODsb35VYdEqwuDgaeE8DhyzohG2dpufoaSIDYO0nLMcqcbc27w9NcqUYpg3LMCRsR7R9D/aEG3Bj+3jUWTr2jie4caVEFlUWA6bRuLqwsaeFt6m1Lcbcm0fQ5VhcHeK0ocnhjbvVAPI6Twxse8r/AOflmNgBc15ylXFBpnCAm2NaEMyu1r2GYxyTqrDeK04m0l7/ACHnKdACaUITuvR1MgfR32zgzSBL7r0ETKELHcMxdjYAXNWGUp5EqcoS4oOpupFwfKkHcaeM71YioG9m3wwqGHuGkaiPBjo/HNNJ3ubVCns3Pv6ZzMw4CurD/wBTmh8FZT+3654PEaBBsRQftjBxWUfpN8qTxDyMjCIWLE9YVDG3WVAD8PLP3PZqeP1H+dSWxsdAUycY2wp8oX+3pCo4vWYChHGAZSPhR0Wmk5HAUNJpY/ybEGjcaMq9YVqILay2J9WiyNlEnIm1W1slxvR6Ey4XGI7jmjWByFZNrDMoMz2v6oqHwVMIx95JaxPDfV/tMvxoZPlJ0i3VaoPEamReuqaS0GPUODip2BuDE1vhSeIUZWFzuUd5rRWSS57EdDTfKI+ZNPk8xtLo4MONMjZTLpKbHGo5R2lvUaROVdzvHdTvLPIyINxPGpAMpkADHjUDMbkxqSfd5aGbmpqYN1THf4VGW9fTPzpZP7i/7pEvjpav4Y0G/tqTUzn1jSQjJ2w3m+81qtQyte4N6QeuCDTZTlU7ppe0KWGJnZV9mhLCDbRsbipR7f0zP4TQzQ+CpJHUNqwLX76m0lF1UsPytURHBx86g8RqT9P6ivtUY2H635GsoyOQ4iJinw3UniFLr2ZVTHA2p9VM8jHDvoxRh9O4IuKj5H5VrRulF/fTQnfG3+jTAbo9mkv1pNs1L4zWT/pL8vLSd6bVXXuI+NTTdw0RSy+o3+jQj7IN6lm9ZtGpkPBzUchhBbc2J31rJoQFvbeaX7LGdaN2+pHY8bKO4UjzaTswvvwoRZOLALjjxqbx/TM/hOeHwVlP7frWUfpN8qi8YqDxGpP0/qKaKQXVhTRNvHHvFJ4hUeTA2W2kfzp5ZmNlNtEVpxpZyQBtVF7/AJUzDrR7VFm6pQ3pEO+R8frVhuqXxmsn/SX5eWaM7mFqt9mm/wChoaalWYliDU0XErhzrzWf+M1EhFmtc1roba0bx61G2thPGhfWTHhhRll/qt/6inlijLxMb7PChBC01twGjSl45JHcaTWF7VKJI3Q6faFuFeaz/wAZzNq42ki4FReliQ5To9wvURiikfZ7K3rKNbE6X0baS276nVQSTG1h7qjJyabrDsGodVG72J6ovTmSGRBq+0tuIzayMXlj/wBik/403WHYNLNCLumBHeKIi1sZO8aNNlM4lbR6qkYn3VGzwSquOJQ91FTiDTouTysAcCEONPPNEyaIsukLZpCMmmI0z2DUCsCCI1uPd/jD/8QALBABAAECAgoCAgMBAQAAAAAAAREAITFBEFFhcYGRobHB8CDRMFBAkOHxYP/aAAgBAQABPyH+snFYBKhNzW9l2dTjXonmvRPNYtoJW0v7j8ZwivsKvv0TCZG6vRPNeieatrcOOazRNxCRM/jGgsrSuBbZ3r0TzXonmo7q9wM2dBBH8y16Vd45ac49xrMyozAJsfh4UEtubR9QY0IkmDpxsc9l+vh3Be1FMNKk2unwKd+3t/N7anbaB6FcDT5iKY8nvpAU0jIKlrC6ZNhy0Xpj26bMnNX1j8PYrU88tOS+51GbULAA2H87wWKweXbTJNFrrzFHwHIZmi0K8QyGPPDnpEipWGc1hpuccdM3LtoRaFcCu0p2zTFjL/Z45/z4f8xqyNJMWByTT5JI8Pd1KAqwFIOkMOo4c8eOnFNzq/6eBVpTgDk599OArhWp56PF8bA59tIySOg4Lcbdv6DxQI/f3pdpx8dj98KBNRvncrcfhZC5/wAuFjhWJrp2Jy+BQhiuxjyvU/8AkNWQ0+hwl5d/0JRZZLqGH1xoKAiWTSXRXuWm8vuhcnPs6bDXLXLg6Y4JA3OmPUwa1ra7Drc3n+ikIlns9J46JhMVj4YRd8k4OB1nTNyLHbkeeHy1Fjtv6PH6O49zEy46LA1Ons8BZcWD4IIiSNMUYuOw+uHwBAqYAq0+JJrWP6SBEc5cTn8IeNAtmV54/HyKR48vv4YkOb9p4fpb9XFcjlfhpaCbptRx+uNAAACwGXxLoNBzKkmi915HTZg5qy4YfpW5DTwo3F/VzhotcrjyGHNvy+fmoph176LnXHXI59v08FNaUZrws86mSOHF1yo2pAsgw+c4wg2Ndw1tTUyi4XqOX6cYBoQkSk7URKI1W/Dsp+1/9/J8ZNQV6TREkiSNQl6HWpIASajRikrMqGHdiHzbE16T8CrxIzVl/wBsJw7aT1TjWUq5Y1mgJSyOQUTQVgL/AIRhkhL2aEUEDMfyiHIQlY4SeDV0ZSf02VIJxOJY7NSM4j0HWNF0ZOETbpVo4Y7y57/PoND4oVOVLBn+l9HUO/wf2GopSyJEyaZCc+a+Neg1q9pr/CycM1U76I2B7UgH803CAHs9RqV28nAf40xcKDdbvNTXzrqNOlZ50tW1bN01N2cDgdbTg6Y2PEUEPNxPpNRxYFw3lCb7JyYZcagUxuwHip8kblTdDhRDXBzg0Ls5ALNFm1OqIjvt1dQ70EtQ4QFz1KnEnZE5UM6wjhnU17DUV3w3RLdalq5G+yhBKkZk69prq98qJKBwJA5FNjLhCH7qM6Js0YTvKKOWGuVgFlubKk5NkvD/AKVF+bgVetB+iAw3puz4Yqj81pmtdTzTNQh9XaavMSuH9qiUsM7lu0Vm8zbl4RU0luI4eaQeZI3FjpSxLcQ3lNAAVhj0oxtuTp8U7hd7BhkRQd6gTF2o52GyKi+IpOpD7NHstVdRo6h3o+xECSU36VNkWYuhNNaysp7DUV1GjPy2HN41iceuZKae010PLDIhxkpeERMWmxAKjIDMJ7FNDMxeaoYI5Us+Kn5kuZ3mpfSQd+fXtU6EdQw6RXtddel1PzWGTAeGPSaTtCt3BHvUomHxLvYqCi9/kd4pabcx2oHipiMAcD/aAaLDdMnSoWv2M48awR0XVedQpAVRba+NKiQeoDYpsI14RJlFREZTJuXXsiuodmj0WqnBdtCIIyNdQ76H9LrV7HXXsNRXUaLJwmn0S2DMz4le0104JY5tQdqtQNrEsZ07c6VO/pXQ9+oVSsd2fTtSL2zeCTqRxpAlmPqu9EggEBXtddel1PzYgre5Kay4Yt9VC4HJCZHQqNCVw2LnWvUPFIftNIRb3p4RihLA+6vNeBIHw1Zr8BIPBUXscQX2FIC0YSzySmRBYyTpapEuB5pwUzprwkCps116h4qJimVMyBm2DU1gbkMiUElGKkL7K22MEuKhkNASrKigwZW1fdRirKlhY1Up5IFRO00JYqsBfOKeUwkXXbqhNbWdhRYW7McEqwCAhcchhQX0TEC6hBgQmspRnxQDJq1I2WS4t/b6GkxBL191DIaQhGH9Yf8A/9oADAMBAAIAAwAAABDzzzzzzzzzzzzzzzzzzzzzzzzzzzzzzzzzzzzzzzzzzzzzzzzzzzzzzzzzzzzzzzzzzzzzzzzzzzzzzzzzzzzzzzzzzzzzzzzzzzzzzzzzzzzzzzzzzzzzzzzzzzzzzzzzzzzzzzzzzzzzzzzzzzzzzzzzzzzzzzzzzzzzzzzzzzzzzzzzzzzy/wB538n1I88+rc8888888888888K+1tD398h+m88888888888888/VuYG2+4X+8888888888888888d+jV8Us+188888888888888888uC08e+8c88888888888888888CF88/1+888888888888888888r2888t/wDPPPPPPPPPPPPPPPPPPPPPPPPPPPPPPPPPPPPEeHUfPPHvf1b0G/PPPGfPPPPPOk0yw6QPwXdHA4kY1X7PPPPPPOCHArCJ1+lFUzg8Bz3f/PPPPPPPPPPPPPPPPPPPPPPPPPPPPPPPPPPPPPPPPPPPPPPPPPPPPPPPPPPPPPPPPPPPPPPPPPPPPPPPPPPPPPPPPPPPPPPPPPPPPPPPPPPPPPPPPPPPPPPPPPPPPPPPPPPPPPPPPPPPPPPPPPPPPPPPPPPPPPPPPPPPPPPPPPPPPPPPPPP/xAArEQEAAQMBBwMEAwEAAAAAAAABEQAhMUEQUWFxgZGhscHRIEDh8DBw8VD/2gAIAQMBAT8Q/rVJIamRjS7hxSWE1vprQCTGxmSODfXH92rik3J3mTt6bHSQFGtAtidNKWjjLdwfOP548L58n4ffZfLR6afFG5pTNkauBhrN2M1hxE1Dtf0/nHfZb6/p0757fzoSkbNaYj408VPrdZ5PxmoDQu+2y0i39HbzsIE4ue/z3ptFwcj9mlO1zy1oiCx9hGjFnlp59achrRMXZqHnBd2Qwah106NOyofm2yEV7DkfL6fY4a0is1ij87Idc3fGydLV6a/PTZmYX/XpQg2CD7KMDWz7VCrGXltSbNQLjJyf2KhAZse77d/szc1qellfoNCjU4VgxEf8aSgkszpVlpkE6xTsQRi1QoE17zm3j6LEG7M6R80yJbkFFCKRni0X8LOOCntQjym/mFKLDIjXf1o6jxTv+mByMMJPf65PeD7e9MY3YdmDw1ofAp0x6lWAIA7gM92gQKydc7seZqOoLCmLZnnc80UwiQfTl5rMmkvFLFpKDdEY50MrNy0vzaJIAwTeFXXfO+ntlhfWFKyArPKc+zwpLUl+DNygAcyF3213eax8Qb77dzNPCZxLOLncpATdza1vW9GDMb3j9Zr6EpoYJN9+P3lRiCgvHD9KMDVjnd60eiSRcRO/f080qhcqEclPXpQxokTD3yzSDFY0cSp0hKY0mKSZCPq0owi8epoClLucasyytmoLrKTl+KZlaXbtZ0pHKeBEWnLH7FHfLrzPkt0oi7vg/M0uBP8Af6z/AP/EACsRAQABAwEGBgIDAQAAAAAAAAERACExQRBRYXGR0SCBobHB8EDhMHDxUP/aAAgBAgEBPxD+tRhkqDOdbGdaOgOltdKRQ52QEni3VwvQq0pFmNzh6++w0ErSJChdjXWi4ZwWMvbP88ulsOZ3PjZZLV89e9IBrRlgKt7krFikVkRGKnit7/122Xct79emOv8AOBaEvWqgeuvrUG4XOZ3xUxrWPnZdzf8AT19NiyPNn47dKLWcvN+xQKaY56UzJd/AkRm5z19PagCtQGCKkIy2Nk6XQfLXzKNgSdr7I1rXPN7Hv+Dl7GawSidkkGLO+yHbR89O3nswEB/lKFus/hTLSufNSRzg57RRkqbM4eZ9mpVHF+D56fh6JFRkEB4FIJWnGsmaz/xo+gwxFXEiFHymjbqJN6mwtWtGL+vgvYLMcZ7Uaob0tHlQZxwKY+QjPEGmVgd3KidrgzpS/jgjd4ZjJySMdPHH7hPn4okixLqS+1anSg+efZq5RITiuPSkSG6NMb/1FTBLJAJvu5Zp5lkKe/OsCYw9aKJGEu+ZzypYGJhrbkUyIglYtIBpujdRSwStxBrEGkc4x8nGj9K24kWaUDyZDdfTf6Vn7iW3X6NBiIzBGbPRqUBv4ve/takAjkcPHx/DQQSwLbs/edKaAq08frTGaE8rHlTOcbNlMbt3nQuVgCTzB+608IjMS+MEUREXdXBqOMwj1oYUiezWlIbT7CkOCDe4VfNgLlS3CEPP90Ri1uvW5rQGEcrzeME/ZpcbfD2b+dIXZ9X9RR4h/wA/rP8A/8QAKxABAAEDAwMEAQUBAQEAAAAAAREAITFBUWEQcYEgkaHwUDCxwdHhQJBg/9oACAEBAAE/EP8AzJBwTL5xEhcdkqcuyYIZDYiPnqmTRl7NiWJ1NrIelxId0Fe7bFOASUOWIYiw6pkxDii4LXCSDJyFCJQpIEkT0tK40hXVDBdH8OqZMalMG33fgMcpRAJgIJZfd/7JMAiA8p8y6lxtr0aScIp5rlqGgSei2igA3LY9mfLegNMKzc1om0hI7nWQkIMt0z8Q9gb+hK7pExLQ5WDzXe4yhL462vmZS4l3wfHf/tHK6TEq0HIwnaoo8rlRbjrcSVlbrWHc+zq6GTIDSrwBUlBj+wBAnmXXpNrpHKx1dkRwyF3ujwoRBGRw9bmwQPhPmHVJTCtTrdgBfFBs2Ngg/wC6wkZAYK53Ef76zmoQ61vaWOYoRgcEhInjpe4KVeM9so2J1lxnHlkgA1ZikUiIlkeuAAzNwPks7rpJXlcCbc02V0iZhoOAgO3XJBOQ0Lh5iXH/AHo/0sulfxIeJrPGcJEJ7nW4EgSb/wAAycFCbAlVgDep4RBN2ijSUs3XWXjsElpEfEcLuVmoUZaX4FPYdYNaEjaT8UL7L0tAMROGudxP++sAuFpKxLwZaicOEXhlcrK8v4C1UcRLAv7Ie51MwFANbXst3ChVkqLEBPiR4XTqCoAq4CghD8kJK7D3GtRO9IS7D5JW3D0J6I7DJPvDunaofAs+lbxAeZ64HFlMotdkHlt+BHCKU5XZN1wqWAyghEyPVg3DJH3b52DbrgUshYt/S4mHJ1tiixYRkeQ7Rv1WLvEEhG2o8L1a4c+UQHu1Fchhme/mS/grWgYiw4eVP8OkzI93dfRIbUnMC7rgtouq4w2MvD+wHqLzxXCwP7Hu/g1ij2y6TI7JO6bdJJpsO+v9eOu6iwsqQ+52FdPQTYEIkibUrQch1vey/cvQR9QEquAoFllXK7owcB+EOMcwlhPgkxslKqqyvW6zJZcB+Jf8/TeySYF/5RDwehgoC4smHiHwb/hWTEIGQPsXkmvVoNZ06u7SbB3FHncAgBgDb04lARIQj4qQVdOtf2knmehdgqys8N4D4I8H8KBAESEdaQ5JWi6gby6LYEQu9ORc5A/Xc2UjMtc9lH+emL4TlgfmujZfh7niQrxAcyOAN1RpAQf4gGN2DWseAqDADgAPXywBQIfNHHfSiIZDhEfNYljKXCfFdG6/h0AyJJEIjZE0p44W9pFkBiQtwfosVsBdwxdJ/wDvwbKDgEr7FfR/pQXjgYRw1eKoaGCxbgaQtKQkCC3N09+kE9ruZAkwbI0oXAlhTOfWhEwBLX0f6UMknW481EiYmxXefFrXSay9uq1WJK4zgqDM4KK2JM9MeFzgSr2CgnGBktgx+ikN7rgYTFYnKmCkTuP6oBEXaiQlTG3S3Q/ipugCaylT8q0tPby+hvVuhXLB+hp0jSTFxR8BUlQQtS1eFHr+Z/boeQz1iRJTuiQPQ/Wb/SVQKxHoQZEd5oJyMVoJgbC55NOnb6bZ+i7KhjlJHwaFmbSMIJLNx/W+bwyUC4REGxE+aZrgFbkRUZbc7sJ7KGo+iHnWX5pSnikS0QF8EtdgD5uAZxY4l5UcEl5mkCdqr/skgM2V8GJpIggZcOJtGG2j4WzwxYJgDZWb2CLM2bjTLEzBDB4KcHQ+aSu+ENS98wzBaT5OE6QddSbouoxakg5DJQ3B1KRE1+s30DgEJxo1cBjfEM25vCe0g+KlKxBQSbdmYs5nMzaqiJlWE42+Yg5ir2fsbs8xuX9zWm9LVIiCO0V9NsqxUEyJpgnQgV4Gpa1bVG2VDdnvV747iHOWOyokPmmboFhkbZ2tT3BI0kh8WqGohZqS/gyeKQjuxAb30l9hoiD5JTtbWA9xSZY8gBgFJtoWVJV3V/Wkwp7hZ+K9ymaX/JUJ5odLm7uA81ZGaW6ypyuOM3kD4HzV2SauJEf3vimiXL0aH2FFDdCpGXDx2CiqgzGMOCbpKWsEW4M/Jo6lFLCABmtgsTSDJKZkqqpJVdKsAt1eRZZuHilObiG0/wBfT6bfXwP79PrN9QdgsBYQdQcd50qVBbiQWOkxDw0+koNkHWo6gYUcls/hl3ncpZfUS8t3DJxO1fTbKzJdJBdSYDjLQRzFYFYgBYm7gpekKYIwsza5p3IOaE37hVv9Eha2PtPy1dFmHaQfD41j1d4hfzklLzobN4h+37mvut/6/qRSDiyu91O/4PBXsqwDJnVfwfNV/o4tgl8KqGw/KD7Cs3yF2mY7vxpoSXLVJPKHzQW3PicTIQJt2JUuGEDBoBJwvijV2eYZCZRhS+9PPvjZgA0xLuq0/EbqYDAgwTlb8YpwittEMpTL56+r/qX0CWALRNgSIyJX1m/qXr7jb1qOpNiHqbJsjCO5TLHbMEQHCY7lfTbKlkzSJqB3CTG7wUwKQQoCqzFyIjW9T+es0s2LGD0W28zhLxse0l8KjuE02fcbApDiU8wr4BKgPlALAWCvut/6/r5tbQP70i2MlIxs5FMf+PdQI3LD5psa1pkP2R0pKqjkwWAcIIRxWSL6gsXwDAtksxBQarAjDxInYb0Gu0IScwB3G1SszzgSTcZVCYtYjlpk0rFKC4CsOIjWiEXYd2FSDuBU954tEQyMCW+tLHcNCCQBJPSkADIwRKWrVQtIS4mJw/FEYN04TYtgjTFAhOXLSoYrxXde+IExJ7lMZHkkQAXVdKHQ+GAMq0TrmXAwLBikX1UkiBBeBtx0AvQZrJ5Uycya01dgGBC7SYTskFMl2ozbWd7MZs0u4xLBc6UmIKaYBjWBdYJgzkuDtGYyVILsUf8AXdhCE9qBJP5LYQhkhpdUCsTYAYCOhVwoIFwjkUxkeQRIjcR0/wDMP//Z" vertex="1" parent="1">
          <mxGeometry x="267" y="508" width="56" height="56" as="geometry" />
        </mxCell>
        <mxCell id="sPfLZQJSzLfNbBtWYW_q-3" value="" style="shape=image;verticalLabelPosition=bottom;verticalAlign=top;imageAspect=0;aspect=fixed;image=data:image/png,iVBORw0KGgoAAAANSUhEUgAAAZAAAAGQCAYAAACAvzbMAAAXcElEQVR4Xu3dC5RdVX3A4Z3X5P1+R5A3BQURFARBBaVQUbAVrQgKKsVaEJACaqRIhMZYY0RAsBZBrQhYwSpQRcpLKqKgIiAERQENjyST5+T9bvbpwuKFZO7+Z2Yyc+/3rcWK6wzLMHfunN/d55y9d6+WE2ZtSABQqHftAQCoh4AAECIgAIQICAAhAgJAiIAAECIgAIQICAAhAgJAiIAAECIgAIQICAAhAgJAiIAAECIgAIQICAAhAgJAiIAAECIgAIQICAAhAgJAiIAAECIgAIQICAAhAgJAiIAAECIgAIQICAAhAgJAiIAAECIgAIQICAAhAgJAiIAAECIgAIQICAAhAgJAiIAAECIgAIQICAAhAgJAiIAAECIgAIQICAAhAgJAiIAAECIgAIQICAAhAgJAiIAAECIgAIQICAAhAgJAiIAAECIgAIQICAAhAgJAiIAAECIgAIQICAAhAgJAiIAAECIgAIQICAAhAgJAiIAAECIgAIQICAAhAgJAiIAAECIgAIQICAAhAgJAiIAAECIgAIQICAAhAgJAiIAAECIgAIQICAAhAgJAiIAAECIgAIQICAAhAgJAiIAAECIgAIQICAAhAgJAiIAAECIgAIQICAAhAgJAiIAAECIgAIQICAAhAgJAiIAAECIgAIQICAAhAgJAiIAAECIgAIQICAAhAgJAiIAAECIgAIQICAAhAgJAiIAAECIgAIQICAAhAgJAiIAAECIgAIQICAAhAgJAiIAAECIgAIQICAAhAgJAiIAAECIgAIQICAAhAgJAiIAAECIgAIQICAAhAgJAiIAAECIgAIQICAAhAgJAiIAAECIgAIQICAAhAgJAiIAAECIgAIQICAAhAgJAiIAAECIgAIQICAAhAgJAiIAAECIgAIQICAAhAgJAiIAAECIgAIQICAAhAgJAiIAAECIgAIQICAAhvVpOmLWh9mCz2GObfmnGcSNS7161X6FebSvWpw9duTC1Lllf+6UutdP4vunYAwbVHn6B/Gb/8m1LQ/+9LX17pYuPH5F2Gte39ksN586Zq9LU77XVHu5QA/r1Snu9tF/ac9t+afdJ/dJ2Y/qkbUf3TeOG9U6jhvSuvv58y1ZtSPOWrEtz29anP85fl56YuzY98vSa9OCsNdWf68p/pGyhpg7I05dMSmOGGoRtqdsfXpXePL219nCXGbvxZ3jv+ePTpJF9ar/0oh5+ak163QVzqxNSiYveOyJ96E1Dag83rI9duzh94eYltYfD+mz8VXvtLv3ToXv0T2982YC09/b9Ur8+HfPpLf8sf/a71em2R1amWx5cWUWFztfUZ0/x6Bhjhm3d1zGHo954ZC/fOPIcM7T+f/85Lyn4O3q6B/64Jn3zJ8tqD4e8dpeW9MUTRqY/XDQp3Tp5bPr4kcPSfju1dFg8ssH9e6U3vrx/mvrO4em+C8anR6dPSP+88X/vOqHxR4tb09b9zQe6nf/5zar0l9NaU2tb/JpQPqHn0doDnx6f7jhnXDrpkMHVSLGr7DC2bzr7LUPTQ5+ZkG77xNj09n0HViMgOpaXFPiT+x5fnY6aMS8tXhGLx5ABvaoT92MzJlaX/Hab1K/2X+lyB+3aP11zyuj0640xOf6gwalv8wwkO52AAJUcj7dMn5eWry67N5Tlk3Iecfxm+sTq0tHoId3v1LLjuL7p8r8buXFUNCG9de+BtV8moPv9lIEu9/s5a9PfXBgbeey/c0u691PjqxFHT7ivuPP4vun600enG88ck7Yf6x7Jluj+P22gU+VHmt86Y17xo835MdvPHTsi3XnOuOrBhJ7msD0HpF9NHV+NnHp13P38piIg0MTWrkvp2Evnp8fnrq390mbleRv3TBmXTj2sZ598B7b0qkZO3ztjTLe87NbdecWgiZ11zaJ016Orag9v1tH7Dkx3nzcuvewlPW/UsSmHv2JANZfoVTu01H6JzWjqgPzTtxfXHoKmkd//X7p1ae3hTcojjclHDUtXnzK6eky30Wwzqk+6bfLY9NevcoO9Xk09Ez3LQ/GWLrqPdt7bh6e3vHJA7eHNypcYPnLVwnTv71fXfqlT5AleFx8/smh5lzzrd99z59Qe7jJ5OYz86bHErmfNTn+YV3bZ5rrTRqcj9yk7ufzzd9vSDb9cUXt4q1u98Vuf+Uz9s7XzHIqL3juyms/R2WbNX5cWLl+fFi1bX80wz393DtbQgb3TxOF90thOnri6YeMZ8fRvLEpfvr3+uDarpg9IV8prKT3++YlFvwAXbDwB5ZNQVzr/6OHpY0cOrT28SQLy4nI43nnx/NrDPU4+gV/5wVHpmP3bX2usVL73csfMVelHG/+Z+fSa9NictWlFO48RjxjUO+0yoW/1cz949/7pDRv/GTes4yd35BHa9P/quKVcGlH9ZzK22Oq1G9KKNZv/5ai1eHnZkzEdoXXJutpDBCxeXvaz7o7yZat/O7Fj4/HY7LVpynfa0m5nz067f3R2OvmrC9O3frq8+iDSXjyyRRt/J/Kcla/cuSy950sL0ranPZsOmDI3XXLL0jS3rePeu3k+SzOtfRYhIMAmTfvb4ek9B3ZMPP77oZXp0GmtaY+Pz07TbmhLT7SWjQA355dPrk5nXb0obf+RZ6uo5LW8OkJ+QutdHRjPRiMgwIv6+zcOSWe8uf5LmZuSV2t+zXlzqrkmeZ2tzpSXdP/2z5ZXf99Rn5+XHi24z7MpV5w0sloQkhcSEOAFDty1f5px3PDaw0WeXrCummOSl/r/1R+2/EReIt8I/+GDK9Orz52bJn9rcVq6sv1LY5uSVw3+1qmji1Z8bhYCAvyZvBzJ1SeP2qLl1q+/b0Xa+5w51Z9b05p1G9Lnf7Ak7fvJOennT8SfZMw36b958mgr+tbwcgB/5vITR6UJI2KftvODIh/++sJq5BFZV6uz5Ke9Dpnami7agg2y8mWsPA+G/ycgwJ+896BB6YjCuUrPmbdkffqrz85Ll9/RMRtRdbQct49euzh98IqF1cgkYvKRw6rHh/k/AgJU8oZPn333iNrDdXlm4bp0+L+0prt/27k3yTvC1/9nWTrmiwtCEcnL1n/p/WUTbRuZgACVKUcPT6MGl58S8sgjP2H166e69kb5lrjp/hXhiOT1sj7whs6fkd8TlL9bgIaTF0Y8MXBSzBP//vrCeenhHhSP5+SInPK1RbWH65Jjm3dfbHYCAqTzjx4WWpb95K8trGaF91T5ctYXbylf8ypf7jv1sC2fI9PTCQg0uT237Ve0xtdzrvzRsnT1T5bXHu5xJv/H4tBipacfPqTpRyECAk3uzCPKP0nn9azOuCp2+ae7yU9n5eVPSveCHzm4d3r/68sv+zUSAYEmlleGfsd+5aOPPNdjZeHCoN1ZXpn5gv8sX/X65EN79o6MW0pAoIkdf9Dg4hnn19yzPN05s/s/rlvq4luWpEeeLnsYYMdxfasl5ZuVgEATK11pNy9WeO51jbmTZ9687bzry0ch7zmweS9jCQg0qT226Ve8r3m+aZ53DGxUN96/ongp+KP2GZD69y0bxTUKAYEmFXny6jM3ln9C70nyKr6fK9yFcNjA3un1TXoZS0CgSR22Z9maV3c9uir9bk7HbQLVXX3vFyvSgmVlC0EesVfZa9koBASa0KCWXuk1O5VtkvTNu3v+nI96rFq7odqUqsQbdjMCAZrEfhvjUbK3RV4z6js/37p7e3Sla+8pC0i+lzRiUMEL2iCa7zsGqgUBS+SZ2m3daH+Pznbv46uLdjHMc0H23r7sgYRGICBsse3H9Kme6Nla3rp3+c3grrD/zi3VmkndUV6+pMQdjzTevI/NyY/0lu7fXvqaNoJeLSfMqj+zbLHHZkxMLx1d/25vZ129KF0SWOxtS5x62JD0uWPL9oXINx2v+cny6imWrjRmWO90zP5lcxmyXc+aXc0+LnHdaaOLn1x69Jk16dZfl52ItsRX71pW17Lq90wZl/bZvv5RSN7X/PaHu+776A7OesvQNPWd9e8L/5U7l6VTvraw9nBDE5Au1qgB6Wm6KiBdLe/Nsf+UOe3O1Zh96aRqLad6bf+RZ9Ozizb//9lo8sj2+tNH1x7epNseXpmOmD6v9nBDq/8dBHR7Y4b2TpPa2c98YEuvongsWbmh6eKR/ebZ9kdyz7fNqL61hxpe/e8ioEeYv3TzN7tHDyn7tS8dqTWKJ1rLvu9Rha9rI2i+7xga3OJ2npYqDciCdoLUqPKN9GWr6r/CX/q6NoLm+46hwa1p54Nz6fLjJY+zNpqlK+uPZ+/C17URCAg0mbx2U4k8M7tZrWonxs2u7J0EdHvtjTBKJwQ260qzWf/muy9eRECgwbQ3wiidq9PM+34PGbD51/L51he+ro2g/lcH6BEGtDMhur2ntGo149NFWd8+KQ3uX388S1/XRtCc7wxoUA8/tSbNXrT5E1npiW67Mc15HWeHsWXfdzM+rWYmehdr1Jno+cT1hZu79r8zyxPnzn/HsOJ9vbtqJvrND65M19/bdavY/uCBFal1SfsnMjPR22cmevsEpIs1YkDmtq1L+5wzp64TV2c47rWD0pUfHFV7eLO6IiB5Mb7D/6W12ke8u7EWVvushdW++j+CwCbMXrx+q8Ujq2fxwK3hydZ13TIe2W+eLYvngbs034ZJB+1a9j2XLn3SCAQEmtBDs8pOdoe8rOxk2tPlG+iv+4uy77n0NW0EAgJN6BdPrK49tFl5B8P2Hg9uJPvt2FL0+HJ+NPr+JwUEaAJ5h8GSy2v5IYW3v7r++z893TEHlO0x88jTa9Ki5QUvaIMQEGhCy1dvSD/7fdko5LgDy06qPVWeef/O15R9rz96tLkeMHiOgECTuuWhlbWHNuv1u/VPO48vmxvRE73tVQPTqIJHnLPvP1D2WjaKslcJaBg3/rJ8fsrHjxxWe6ih5HXE8uO7JfLaYnfNNAIBmkh+/Dlfuy9x7GsHpW0L5jH1NEfuPTDt9dJ21oKpccMvVzbtisUCAk3sqruX1x7arD4bzxgXvKP+yXU9SX5091NHl4+wrrp7We2hpiEg0MT+/cfL0pp1ZZ+e333AoHTw7mVzJHqC0w4bml72krLRx+Nz16Y7m/TyVSYg0MRa29an6wJrdX3xhJFpQL/650l0d3nByHP/pnz0cdmtS4uXx28kAgJNbsb3l9QeatcuE/qmC99T/3pp3VlL317pqn8YlQa1lAVx4bL16at3Ne/lq0xAoMnlJTgiT2R94A2Dq5vqPd20vx1ezbQvddEPlzb1fvGZgADpk9e3hS7FXPa+kWnfHctPvt3FCa8bnD582JDaw+3Ki4deckv5yK3RCAhQPc57xY/KL8cMbOmVvnvGmPTybcpuPncHeb+PS98Xuww35frFTT/6yAQEqOST4oJl5es55U29bjpzTNqjB0Ukx+PaD48q3ogsywtRXhmIbSMSEKCSL8t89JpFtYfrMmlkn/TDj41NBxbuobE15MtW0XisXZfSP3x1YVpv8FEREOBPvvHj5en7v4qt65RHIjd/dEw66ZDBtV/qFvLTVp89Znj6txNHhuKRTbuxLT3wx7LZ+41MQIA/c9IVC9Ls4P7n+SSd54hcfcroNLwb7R+y47i+6Y5zxqbT/6psnavn+8ljq9O0G9pqDze17vMTBrqFeUvWp2MvW1A8Q/35jt53YLp/6vjqz60pjzT+8c1D033nj0+v3iH+tNjctnXpuMvmF+2h0gwEBHiBu3+7Kp35zcW1h4u8ZFSfaiTyg7PHpldu17U32POquoe/YkD6+QXj0rR3DS/aXbBWDum7LpmfnlkYG5U1MgEBXtSXb1+aLvzBls91eOPL+6effWp89aRW6T7jpfJij3kzqPz33fCPY9Juk7Y8XCdevrC6fMULCQiwSZP/Y3Hxir2b8pd7Dki3Th6bfv2ZCWnyUcPSDmM7bnOqfbZvSZ87dkR68gsTq2VJSpdk35TTv7EofeunHfP9NyIBgU4yfFD8skl3kWenf/CKBenaDjyJ5nW0prx9WHp0+oQ087MT0mXvH5netf+g9Ipt+1UTE9szYlDvavb73x08uIrFrIsnpnumjEunHjYkjRvWcXuV/NO3F6d/vW1p7WGep1fLCbPid8oo9tiMiemlBRvynHX1onTJLV37Js6/iPnTXL0enLUm7XvunNrDXSZ/2rz3/PG1hzdr17Nmpz/MW1t7eLOuO210OnKfspvCn76hLX335+XrTHW21Ru/9ZnP1P84ar40dNF7R3bJI7qz5q9LC5evT4uWrU/LVm2o/u7B/XuloQN7p4nD+6Sxwzr3c2+OZh555Et4bJ6AdDEB6XjdOSDd2ZTvtBU9lppvTOctbfPooVGtWL0hve/LC9J3f9H9ot8ddW7KgW4rh+DkQ+tfSDB/Ms/BOfbS+dXIoNE8tWBdetO0VvEoICDQxKa/e0R6/W5lT0Zdf9+KdOCn5hbvp96d/fDBlWm/T86p1rmifgICTSzvA57nauSZ2iXy/ZMDpsytLq9GloHvLvIlq3y/420Xzkvzl5olWEpAoMmNHdo73XjmmOrPEivXbKju0R08dW56+KmeNxq55aGV6ZXnzKmetOrJEdyayt4xQEPaeXzf9J9njAmtX/XT361O+503p/okn5dB6e5+N2dtOvqi+enIGfPSk61lD1Lw58rfLUBDynMrbjprTPHe4Fle5jx/kv+Ls5+t5k90x8tBj89dm076ysK01ydmp5vud6O8IwgI8Cd5b/AbzoyNRLK8S9/0/1qSdjnz2WpE8mjBXJPO8uPfrkrvvnR+2uPjs9O//3hZFTs6RuxdAjSsvF7Vf08eW3xP5PnyY755RLLXJ+akQ6bOTZffsazasKqrPNG6tgrZnhuj8aZPt6bv3LfCSrqdIP4OISQ/a17i6a2wAmjpdex5bWX/fkfL27Dmp2nq1bZi/cZPyuX/zVvjZ7G15MmZxx3YMbPO80KEH/76wrTd6c+kQ6e1ps/c2Jbu/f3qLVouvlYO1u0Pr0rnfHtxNal1t7NnV5fSfjvbPY7OZCZ6F8uf6v71AyPTsDouEdz0q5Xpopu3fDXUiDPePDQdsdeA2sMvkE/GH7pyYZd+unwxB+/eP53ztvpmSOeTTD6BlcqbJV18/Ii0U+Ejrz3RnTNXpanfq3+WesSAfr2qUO25bb+0+6R+absxfdK2o/umccN6p1FDeldff74ciXlL1qW5Gz+w/HH+uvTE3LXVXJS8EkL+0wij6wkIACHtfwwGgBchIACECAgAIQICQIiAABAiIACECAgAIQICQIiAABAiIACECAgAIQICQIiAABAiIACECAgAIQICQIiAABAiIACECAgAIQICQIiAABAiIACECAgAIQICQIiAABAiIACECAgAIQICQIiAABAiIACECAgAIQICQIiAABAiIACECAgAIQICQIiAABAiIACECAgAIQICQIiAABAiIACECAgAIQICQIiAABAiIACECAgAIQICQIiAABAiIACECAgAIQICQIiAABAiIACECAgAIQICQIiAABAiIACECAgAIQICQIiAABAiIACECAgAIQICQIiAABAiIACECAgAIQICQIiAABAiIACECAgAIQICQIiAABAiIACECAgAIQICQIiAABAiIACECAgAIQICQIiAABAiIACECAgAIQICQIiAABAiIACECAgAIQICQIiAABAiIACECAgAIQICQIiAABAiIACECAgAIQICQIiAABAiIACECAgAIQICQIiAABAiIACECAgAIQICQIiAABAiIACECAgAIQICQIiAABAiIACECAgAIQICQIiAABAiIACECAgAIQICQIiAABAiIACECAgAIQICQIiAABAiIACECAgAIQICQIiAABAiIACECAgAIQICQIiAABAiIACECAgAIQICQIiAABAiIACECAgAIQICQIiAABAiIACECAgAIQICQIiAABAiIACECAgAIQICQIiAABAiIACECAgAIQICQIiAABAiIACECAgAIQICQIiAABAiIACECAgAIQICQIiAABDyv0doOWQMYNRTAAAAAElFTkSuQmCC" vertex="1" parent="1">
          <mxGeometry x="271" y="580" width="48" height="48" as="geometry" />
        </mxCell>
      </root>
    </mxGraphModel>
  </diagram>
</mxfile>
